<?xml version="1.0" encoding="utf-8"?>
<!-- Generator: Adobe Illustrator 22.1.0, SVG Export Plug-In . SVG Version: 6.00 Build 0)  -->
<svg version="1.1" id="Livello_1" xmlns="http://www.w3.org/2000/svg" xmlns:xlink="http://www.w3.org/1999/xlink" x="0px" y="0px"
	 viewBox="0 0 365 979" style="enable-background:new 0 0 365 979;" xml:space="preserve">
<style type="text/css">
	.st0{fill:#D4024A;}
</style>
<path id="Path_303" class="st0" d="M277.8-6.7c-21.2,14.1-46.4,36.2-32.1,64.2c13.7,26.7,48.7,36,75.4,42.5
	c32.7,7.9,66.8,12,98,25.2c31.6,13.4,58.5,37.8,72.7,69.2c7.4,16.4,7.2,32.7-3.6,47.5c-8.8,11.9-21,20.9-32,30.7
	c-22.1,19.5-39.3,47.2-39.5,77.4c-0.2,30.1,18.9,53.8,43.6,68.8c30.9,18.9,67.8,24.6,99.1,42.6c32.5,18.7,63.3,48.5,76.4,84.3
	c6.8,18.4,8.2,39.4-2.1,56.8c-9.1,15.4-26.1,27-44.5,24c-3.2-0.5-4.7,4.4-1.4,4.9c28,4.5,52.9-19,57.6-45.6
	c5.7-32.6-12.7-64.2-33.4-87.8c-21.9-25-49.7-43.3-80.6-55.3c-32.6-12.6-69.6-21.1-93.4-48.9c-23-26.9-19-63.4-0.8-91.8
	c8.7-13.6,20.3-23.9,32.4-34.3c10.5-9.1,21.6-18.7,27.9-31.3c14.3-28.4-7-60.8-26.2-81.3c-23-24.6-53.2-38-85.4-46.2
	c-18.9-4.8-38.1-8.1-57.2-12.5c-18.3-4.2-37.5-8.8-54-18.2c-14.5-8.2-29.6-22-28.1-40.2c1.5-18.7,19.4-31,33.6-40.5
	C283-4,280.5-8.5,277.8-6.7z"/>
</svg>
