<?xml version="1.0" encoding="utf-8"?>
<!-- Generator: Adobe Illustrator 22.1.0, SVG Export Plug-In . SVG Version: 6.00 Build 0)  -->
<svg version="1.1" id="Livello_1" xmlns="http://www.w3.org/2000/svg" xmlns:xlink="http://www.w3.org/1999/xlink" x="0px" y="0px"
	 viewBox="0 0 365 625" style="enable-background:new 0 0 365 625;" xml:space="preserve">
<style type="text/css">
	.st0{fill:#C5003B;}
</style>
<path id="Path_272_1_" class="st0" d="M-18,604c29.6,9.7,63.5-4.5,75.3-33.5c6.6-16.2,7-34,9.2-51.1c2.7-20.2,9.1-38.2,24.6-52.1
	c31.3-28.1,75.4-29.8,114.3-39.7c18.1-4.6,36.7-11.2,50.5-24.2c12.5-11.7,18.5-27.8,18.5-44.8c0-33.5-18.5-65.9-42.3-88.4
	c-23.8-22.5-54.8-37.3-87.5-40.4c-16.4-1.5-35.2-1.2-49.2,8.5c-15.4,10.6-22.6,28.7-30.5,45C56.7,300.4,46.2,315.4,30,326
	c-14.8,9.7-32.1,14.8-49.8,14.7c-35.8-0.5-69.3-26.1-79.7-60.2c-10.6-34.7-14.5-25.2-3.8,4.7c10.6,29.8,37.7,53.5,68.9,59.2
	c30.9,5.8,64.2-6.1,85.3-29.2c12.2-13.4,18.5-30,26.6-45.9c4.4-8.6,9.5-17.2,16.8-23.6c8.5-7.5,19.1-10.3,30.2-11.1
	c34.2-2.4,68.8,10.2,95.3,31.5c27.1,21.7,49.2,55.8,49.6,91.4c0.3,20.7-9,38.2-26.3,49.5c-16.7,11-37,15.6-56.3,19.6
	c-36.6,7.5-77.4,13.2-104.3,42.1c-11.7,12.6-17.5,27.9-20.2,44.6c-2.8,17.6-2.6,36-8.8,53c-12.3,34-58.1,47.3-86.4,23.6
	c-2.5-2.1-6.3,1.4-3.8,3.4C-31.2,598.2-24.8,601.8-18,604z"/>
</svg>
