<?xml version="1.0" encoding="utf-8"?>
<!-- Generator: Adobe Illustrator 22.1.0, SVG Export Plug-In . SVG Version: 6.00 Build 0)  -->
<svg version="1.1" id="Livello_1" xmlns="http://www.w3.org/2000/svg" xmlns:xlink="http://www.w3.org/1999/xlink" x="0px" y="0px"
	 viewBox="0 0 365 625" style="enable-background:new 0 0 365 625;" xml:space="preserve">
<style type="text/css">
	.st0{fill:#C5003B;}
</style>
<path id="Path_272_2_" class="st0" d="M372.3,348.1c8.4,8.9,11.8,20.3,13,32.2c3.8,36.9-8.7,74.7-30.8,104.1
	c-22.5,30-58.6,55.1-97.1,56.7c-22.4,1-41.6-8.4-54.4-26.7C190.7,496.7,185,475,180,454.2c-9.4-39.3-16.9-83.2-49.1-111.2
	c-14-12.2-30.7-17.9-48.9-20.3c-19.1-2.4-39-1.6-57.6-7.7c-37.2-12.1-53.1-61.2-28.5-92.5c2.2-2.8-1.7-6.8-3.8-4
	c-5.1,6.1-8.8,13.1-10.9,20.6c-9.5,32.3,7,68.5,38.8,80.2c17.7,6.6,37,6.4,55.5,8.2c21.9,2.2,41.6,8.5,57.1,24.8
	c31.4,32.9,34.8,80.4,46.8,122.1c5.6,19.4,13.4,39.3,27.9,53.7c13.1,13.1,30.7,19,49,18.4c36.2-1.2,70.6-22.3,94.1-48.7
	c23.5-26.5,38.4-60.5,40.6-95.9c1.1-17.8,0.1-38.1-10.9-52.9"/>
</svg>
