<?xml version="1.0" encoding="utf-8"?>
<!-- Generator: Adobe Illustrator 22.1.0, SVG Export Plug-In . SVG Version: 6.00 Build 0)  -->
<svg version="1.1" id="Livello_1" xmlns="http://www.w3.org/2000/svg" xmlns:xlink="http://www.w3.org/1999/xlink" x="0px" y="0px"
	 viewBox="0 0 365 625" style="enable-background:new 0 0 365 625;" xml:space="preserve">
<style type="text/css">
	.st0{fill:#C5003B;}
</style>
<path class="st0" d="M-489.7,426.4c96,51.5,199.4,105.7,311.9,95.4c25.9-2.4,51.5-8.2,75.5-18.3c24.3-10.2,45.8-25.6,69.5-36.9
	c42.2-20.1,94.2-17.9,132.2,9.4c-20.8,10-40.9,23.6-55.1,41.8c-14.8,19-22.5,45.1-13.3,68.3c7.6,19.2,26,30.6,46.1,32.3
	c46.2,4.1,74.9-42.7,67.3-84.7c-4.2-23.1-17.4-42.3-35-56.6c20.2-8.8,41.8-14.5,63.6-17.1c52.6-6.2,104.3,4.8,152.5,25.8
	c25.9,11.3,51,24.4,77,35.4c25.7,10.9,52.3,19.1,79.8,23.8s55.5,6.2,83.3,4.3c25.1-1.7,51-5.4,74.3-15.3c11.1-4.7,21.2-11.1,30-19.2
	c2.5-2.3-1.2-6-3.7-3.7c-20.1,18.7-47.3,26.1-73.9,30.1c-29.9,4.5-60.4,4.9-90.4,1.5c-30-3.5-59.5-11.1-87.6-22.2
	c-28-11.1-54.7-25.2-82.3-37.4c-48.8-21.7-100.7-34.1-154.3-28.7c-24.8,2.5-49.2,8.6-72,18.7c-0.3,0.1-0.7,0.3-1,0.4
	c-19.4-14.3-43.5-23-66.7-25.2c-26.9-2.5-52.9,3.6-77,15.6c-25.5,12.7-48.8,29.2-75.8,38.9c-113.3,41-232.2-7.4-332.6-59.8
	c-13.3-6.9-26.5-14-39.7-21.1C-490.1,420.3-492.7,424.8-489.7,426.4z M114.2,488.7c16.8,17.1,27.7,40.1,26.1,64.4
	c-1.5,22.3-13.3,45.2-34.1,55.1c-18.7,8.9-43.6,6.5-59.1-7.6c-19.9-18.1-17.7-49.1-4.9-70.6c13-21.9,35.5-37.3,57.8-48.5
	c1.4-0.7,2.7-1.3,4.1-2C107.6,482.4,111,485.4,114.2,488.7z"/>
</svg>
