<?xml version="1.0" encoding="utf-8"?>
<!-- Generator: Adobe Illustrator 22.1.0, SVG Export Plug-In . SVG Version: 6.00 Build 0)  -->
<svg version="1.1" id="Livello_1" xmlns="http://www.w3.org/2000/svg" xmlns:xlink="http://www.w3.org/1999/xlink" x="0px" y="0px"
	 viewBox="0 0 365 625" style="enable-background:new 0 0 365 625;" xml:space="preserve">
<style type="text/css">
	.st0{fill:#D4024A;}
</style>
<path id="Path_52" class="st0" d="M572,443.1c-5.3-25.8-16.6-58.5-48.9-55.7c-30.9,2.7-53.4,32.5-70,55.5
	c-20.3,28.2-37.5,59.2-62.2,83.9c-25,25-58.9,41.2-94.5,42.6c-18.6,0.7-34.1-5.8-44-21.9c-8-13-11.8-28.2-16.9-42.5
	c-10.1-28.7-29.8-55.9-58.7-67.9C148.1,425.2,118,434.3,94,452c-30.1,22.2-49.9,55.2-79.3,78.2c-30.5,23.8-71,41.6-110.3,40.3
	c-20.2-0.7-40.8-7.5-53.5-24.1c-11.2-14.7-15.7-35.5-5.7-51.9c1.7-2.9-2.4-6.2-4.1-3.3c-15.2,25-2.4,58,21.2,72.8
	c28.9,18.1,66.3,12.8,97,2.2C-8.3,555,20,535.6,43.5,510.7c24.8-26.3,47.3-58.4,83.1-70.3c34.7-11.5,68,6.5,88.1,34.9
	c9.6,13.6,15,28.7,20.2,44.3c4.6,13.6,9.4,27.9,19,38.9c21.6,24.8,60.9,16.9,87.9,6.6c32.4-12.4,57-36.1,77.4-63.7
	c12-16.2,22.6-33.3,34.2-49.8c11.1-15.9,23-32.5,38.4-44.6c13.5-10.6,32.5-19.7,49.3-11.2c17.3,8.7,22.1,30.6,25.7,47.9
	C567.4,447.1,572.7,446.5,572,443.1z"/>
</svg>
