<?xml version="1.0" encoding="utf-8"?>
<!-- Generator: Adobe Illustrator 22.1.0, SVG Export Plug-In . SVG Version: 6.00 Build 0)  -->
<svg version="1.1" id="Livello_1" xmlns="http://www.w3.org/2000/svg" xmlns:xlink="http://www.w3.org/1999/xlink" x="0px" y="0px"
	 viewBox="0 0 365 2335.3" style="enable-background:new 0 0 365 2335.3;" xml:space="preserve">
<style type="text/css">
	.st0{fill:#C5003B;}
	.st1{fill:#D4024A;}
</style>
<g id="Group_68" transform="translate(-795.823 -1578.803) rotate(-21)">
	<path id="Path_272" class="st0" d="M184.9,3340.4c-0.4-3-5-1.7-4.6,1.3c4.8,34-28.4,63.7-61.4,56.6c-16.4-3.5-30.9-12.7-46.2-19.3
		c-14.6-6.2-29.5-9.2-45.3-6.2c-36.1,6.9-60.8,36.4-84.9,61.5c-12.7,13.3-26.4,27-43.4,34.8c-17.6,8.1-35.9,6.7-52.2-3.7
		c-27.9-18-43.9-52.3-47.7-84.5c-3.7-31.5,3.5-65,22.3-90.9c6.1-8.4,13.6-15.3,23.7-18.3c8.7-2.6,18-2.3,27-1.5
		c16.5,1.4,32.8,4.7,49.4,1.6c28.7-5.3,54.5-25.7,65.3-52.9c10.9-27.5,5.6-60.6-12.7-83.7c-18.4-23.2-49.5-33.9-78.4-29.2
		c-7.3,1.2-14.5,3.5-21.2,6.7c-2.8,1.3-0.4,5.4,2.4,4.1c30.5-14.4,69.4-6.6,91.6,19c21.8,25.2,25.5,64.3,8.2,92.8
		c-8.7,14-21.3,25.2-36.3,32.1c-16.4,7.7-33.4,8.4-51.2,6.4c-16.7-1.8-34.6-5.1-50.6,1.8c-14.6,6.3-24.1,21-31,34.7
		c-13.7,27.3-17.3,59.2-11.3,89.1c6,29.9,22.5,60.6,48.9,77.2c13.4,8.4,29.1,11.6,44.5,7.5c17.1-4.5,31.5-16,44.1-27.9
		c27.1-25.7,50.2-59.9,87.9-70.6c18.7-5.3,36.1-1.6,53.4,6.4c14.6,6.7,28.9,15.2,44.9,18c28.8,5,56.8-14.8,63.7-42.9
		C185.6,3353.8,185.9,3347,184.9,3340.4z"/>
</g>
<path id="Path_52" class="st1" d="M511.4,1886.1c-9.3-24.7-25.6-55.2-57-47.4c-30.1,7.5-47.7,40.5-60.5,65.8
	c-15.6,31-27.8,64.3-48.3,92.6c-20.8,28.6-51.7,49.9-86.7,56.9c-18.3,3.6-34.6-0.4-46.9-14.7c-9.9-11.6-16.1-26-23.3-39.3
	c-14.5-26.8-38.2-50.5-68.6-57.9c-30.2-7.3-58.5,6.4-79.4,27.7c-26.3,26.6-40.6,62.3-66.1,89.6c-26.4,28.3-63.6,52.2-102.6,57.1
	c-20.1,2.5-41.5-1-56.6-15.4c-13.4-12.8-21.1-32.6-13.8-50.4c1.2-3.1-3.3-5.7-4.6-2.6c-11.1,27.1,6.7,57.7,32.3,68.6
	c31.4,13.4,67.5,2.3,96.1-13c30.2-16.1,55.2-39.7,74.5-68c20.4-29.9,37.6-65.1,71.1-82.4c32.5-16.8,68.2-4.2,92.5,20.7
	c11.6,11.9,19.3,26,26.9,40.6c6.7,12.7,13.7,26.1,24.9,35.4c25.2,21.1,62.8,7.2,87.8-7.2c30.1-17.3,50.6-44.6,66.5-75
	c9.3-17.9,17.1-36.4,26-54.5c8.5-17.4,17.6-35.7,30.9-50.1c11.7-12.6,29-24.5,46.9-18.8c18.4,5.9,26.6,26.8,32.9,43.3
	C507.5,1890.8,512.6,1889.4,511.4,1886.1z"/>
</svg>
