<?xml version="1.0" encoding="utf-8"?>
<!-- Generator: Adobe Illustrator 23.0.6, SVG Export Plug-In . SVG Version: 6.00 Build 0)  -->
<svg version="1.1" id="Livello_1" xmlns="http://www.w3.org/2000/svg" xmlns:xlink="http://www.w3.org/1999/xlink" x="0px" y="0px"
	 viewBox="0 0 100 100" style="enable-background:new 0 0 100 100;" xml:space="preserve">
<style type="text/css">
	.st0{fill:#EB672F;stroke:#EB6630;stroke-linecap:round;stroke-linejoin:round;}
	.st1{fill:#D20C4C;stroke:#D20C4C;stroke-linecap:round;stroke-linejoin:round;}
	.st2{fill:#27234D;stroke:#27234D;stroke-linecap:round;stroke-linejoin:round;}
	.st3{fill:none;stroke:#F4F4F4;stroke-width:2;stroke-linecap:round;stroke-linejoin:round;}
</style>
<g id="Group_194" transform="translate(-84.529 -378.438)">
	<g id="Group_181" transform="translate(85.029 378.938)">
		<path id="Path_651" class="st0" d="M5.4,0.1L0.1,5.2L3.5,8l1.9-0.6v86.3H99V0.1H5.4z"/>
		<path id="Path_652" class="st1" d="M93.5,5.4L99,0.1v93.6l-5.3,5.1L93.5,5.4z"/>
		<rect id="Rectangle_939" y="5.3" class="st2" width="93.6" height="93.6"/>
	</g>
	<g id="Group_186" transform="translate(1723.789 -954.522)">
		<path id="Path_658" class="st3" d="M-1603.1,1399.7h22.3c0.3,0,0.5-0.2,0.5-0.5v-22.8c0-0.3-0.2-0.5-0.5-0.5h-38.4
			c-0.3,0-0.5,0.2-0.5,0.5v22.8c0,0.3,0.2,0.5,0.5,0.5h5.5c0.3,0,0.5,0.2,0.5,0.5c0,0.1,0,0.1,0,0.2l-1.9,5.2
			c-0.1,0.2,0,0.5,0.3,0.6c0.1,0,0.3,0,0.4,0l11.1-6.4C-1603.2,1399.7-1603.2,1399.7-1603.1,1399.7z"/>
		<path id="Path_659" class="st3" d="M-1597.9,1375.9v-8.4c0-0.3,0.2-0.5,0.5-0.5h38.4c0.3,0,0.5,0.2,0.5,0.5v22.8
			c0,0.3-0.2,0.5-0.5,0.5h-5.5c-0.3,0-0.5,0.2-0.5,0.5c0,0.1,0,0.1,0,0.2l1.9,5.2c0.1,0.2,0,0.5-0.3,0.6c-0.1,0-0.3,0-0.4,0
			l-11.1-6.4c-0.1,0-0.1-0.1-0.2-0.1h-5.2"/>
	</g>
</g>
</svg>
