<?xml version="1.0" encoding="utf-8"?>
<!-- Generator: Adobe Illustrator 23.0.6, SVG Export Plug-In . SVG Version: 6.00 Build 0)  -->
<svg version="1.1" id="Livello_1" xmlns="http://www.w3.org/2000/svg" xmlns:xlink="http://www.w3.org/1999/xlink" x="0px" y="0px"
	 viewBox="0 0 100 100" style="enable-background:new 0 0 100 100;" xml:space="preserve">
<style type="text/css">
	.st0{fill:#EB672F;stroke:#EB6630;stroke-linecap:round;stroke-linejoin:round;}
	.st1{fill:#D20C4C;stroke:#D20C4C;stroke-linecap:round;stroke-linejoin:round;}
	.st2{fill:#27234D;stroke:#27234D;stroke-linecap:round;stroke-linejoin:round;}
	.st3{fill:none;stroke:#F3F2F3;stroke-width:2;stroke-linecap:round;stroke-linejoin:round;}
</style>
<g id="Group_193" transform="translate(-54.055 -276.438)">
	<g id="Group_178" transform="translate(54.555 276.938)">
		<path id="Path_651" class="st0" d="M5.5,0.2L0.2,5.3l3.3,2.8l1.9-0.6v86.1h93.4V0.2H5.5z"/>
		<path id="Path_652" class="st1" d="M93.4,5.5l5.5-5.3v93.4l-5.3,5.1L93.4,5.5z"/>
		<rect id="Rectangle_939" x="0.1" y="5.4" class="st2" width="93.4" height="93.4"/>
	</g>
	<g id="Group_184" transform="translate(2164.313 -1023.69)">
		<path id="Path_656" class="st3" d="M-2042.7,1363.9h-35l-6.5-36.4h-7.9"/>
		<path id="Path_657" class="st3" d="M-2083.1,1334h46.8l-5.6,20.6h-37.6"/>
		<circle id="Ellipse_96" class="st3" cx="-2072.4" cy="1373.8" r="4.6"/>
		<path id="Ellipse_97" class="st3" d="M-2051.6,1369.2c2.5,0,4.6,2.1,4.6,4.6s-2.1,4.6-4.6,4.6s-4.6-2.1-4.6-4.6
			S-2054.1,1369.2-2051.6,1369.2z"/>
	</g>
</g>
</svg>
