<?xml version="1.0" encoding="utf-8"?>
<!-- Generator: Adobe Illustrator 23.0.6, SVG Export Plug-In . SVG Version: 6.00 Build 0)  -->
<svg version="1.1" id="Livello_1" xmlns="http://www.w3.org/2000/svg" xmlns:xlink="http://www.w3.org/1999/xlink" x="0px" y="0px"
	 viewBox="0 0 100 100" style="enable-background:new 0 0 100 100;" xml:space="preserve">
<style type="text/css">
	.st0{fill:#EB672F;stroke:#EB6630;stroke-linecap:round;stroke-linejoin:round;}
	.st1{fill:#D20C4C;stroke:#D20C4C;stroke-linecap:round;stroke-linejoin:round;}
	.st2{fill:#27234D;stroke:#27234D;stroke-linecap:round;stroke-linejoin:round;}
	.st3{fill:none;stroke:#F4F4F4;stroke-width:2;stroke-linecap:round;stroke-linejoin:round;stroke-miterlimit:10;}
</style>
<g id="Group_192" transform="translate(-205.003 -276.438)">
	<g id="Group_180" transform="translate(205.503 276.938)">
		<path id="Path_651" class="st0" d="M5.4,0.1L0.1,5.2L3.5,8l1.9-0.6v86.3H99V0.1H5.4z"/>
		<path id="Path_652" class="st1" d="M93.5,5.4L99,0.1v93.6l-5.3,5.1L93.5,5.4z"/>
		<rect id="Rectangle_939" y="5.3" class="st2" width="93.6" height="93.6"/>
	</g>
	<g>
		<path class="st3" d="M271,349.5h-35.2c-3.5,0-6.3-3.3-6.3-7.3v-33.7h35.2v33.8C264.7,346.3,267.5,349.6,271,349.5
			c3.5,0.1,6.3-3.2,6.3-7.2v-27.6"/>
		<line class="st3" x1="234.8" y1="314.6" x2="259.3" y2="314.6"/>
		<line class="st3" x1="234.8" y1="321.8" x2="259.3" y2="321.8"/>
		<line class="st3" x1="234.8" y1="329" x2="259.3" y2="329"/>
		<line class="st3" x1="234.8" y1="336.2" x2="259.3" y2="336.2"/>
		<line class="st3" x1="271.1" y1="314.6" x2="271.1" y2="339.2"/>
	</g>
</g>
</svg>
