<?xml version="1.0" encoding="utf-8"?>
<!-- Generator: Adobe Illustrator 22.1.0, SVG Export Plug-In . SVG Version: 6.00 Build 0)  -->
<svg version="1.1" id="Livello_1" xmlns="http://www.w3.org/2000/svg" xmlns:xlink="http://www.w3.org/1999/xlink" x="0px" y="0px"
	 viewBox="0 0 100 100" style="enable-background:new 0 0 100 100;" xml:space="preserve">
<style type="text/css">
	.st0{fill:#F4F4F4;}
	.st1{fill:#001F53;stroke:#001F53;stroke-linecap:round;stroke-linejoin:round;}
	.st2{fill:none;stroke:#EB672F;stroke-width:2;stroke-linecap:round;stroke-miterlimit:10;}
</style>
<rect y="94" class="st0" width="6.1" height="6"/>
<g id="Group_196" transform="translate(-129.529 -276.438)">
	<g id="Group_179" transform="translate(130.029 276.938)">
		<rect id="Rectangle_939" x="5.6" y="0.3" class="st1" width="93.2" height="93.2"/>
	</g>
	<g id="Group_183" transform="translate(3006.124 -1025.83)">
		<circle id="Ellipse_93" class="st2" cx="-2802.2" cy="1333.2" r="9.1"/>
		<circle id="Ellipse_94" class="st2" cx="-2822.2" cy="1344" r="9.1"/>
		<path id="Path_653" class="st2" d="M-2836.5,1369.9c0-8.3,4.4-15.3,14.4-15.3c10.1,0,14.3,7,14.3,15.3"/>
		<path id="Path_654" class="st2" d="M-2816.2,1355.7c1.1-6.7,5.5-11.7,14.1-11.7c10.1,0,14.3,7,14.3,15.3"/>
		<circle id="Ellipse_95" class="st2" cx="-2842.1" cy="1333.2" r="9.1"/>
		<path id="Path_655" class="st2" d="M-2828,1355.7c-1.1-6.7-5.5-11.9-14.1-11.9c-10.1,0-14.3,7-14.3,15.3"/>
	</g>
</g>
</svg>
