<?xml version="1.0" encoding="utf-8"?>
<!-- Generator: Adobe Illustrator 22.1.0, SVG Export Plug-In . SVG Version: 6.00 Build 0)  -->
<svg version="1.1" id="Livello_1" xmlns="http://www.w3.org/2000/svg" xmlns:xlink="http://www.w3.org/1999/xlink" x="0px" y="0px"
	 viewBox="0 0 92.6 163" style="enable-background:new 0 0 92.6 163;" xml:space="preserve">
<style type="text/css">
	.st0{fill:#E74F20;}
	.st1{fill:#C5003B;}
	.st2{fill:#121F3C;}
	.st3{fill:#FFB40A;stroke:#FFB40A;stroke-width:3;stroke-linecap:round;stroke-linejoin:round;}
	.st4{fill:#F1F0F1;}
	.st5{fill:#1EE4BA;}
</style>
<g id="Group_67" transform="translate(-266.769 -351.96)">
	<path id="Path_273" class="st0" d="M345.7,352h-59c-3.9,0-7.5,1.7-10,4.7l-6.3,6.1l3.5,0.3c-0.1,0.6-0.1,1.1-0.1,1.7l0,0
		c0,7.1,5.8,12.9,12.9,12.9h59c0.4,0,0.7,0,1.1,0c6.7-0.6,11.8-6.2,11.8-12.9l0,0C358.6,357.7,352.8,352,345.7,352
		C345.7,352,345.7,352,345.7,352z"/>
	<circle id="Ellipse_38" class="st1" cx="328.3" cy="377.8" r="12.9"/>
	<path id="Path_274" class="st1" d="M354.8,374.3l-2.5,1.9C353.2,375.6,354,375,354.8,374.3z"/>
	<path id="Path_275" class="st1" d="M359.4,365c0-5.1-3.2-9.3-7.4-11.5c-1.2-0.6-2.5-1-3.9-1.3c-0.1,0-0.2,0-0.3,0l0,0l-14,10.4
		c-0.1,0.8-0.2,1.6-0.2,2.4c0,1.7,0.3,3.3,1,4.9l14,138.3l0.2,2.4l5.2-5.1c0.8-0.6,1.5-1.4,2.2-2.2l0.4-0.4l0-0.1
		c1.8-2.5,2.8-5.4,2.8-8.5V366c0-0.2,0-0.3,0-0.5S359.4,365.1,359.4,365z"/>
	<path id="Rectangle_199" class="st2" d="M281.1,358.1h57.6c7.9,0,14.3,6.4,14.3,14.3v128.2c0,7.9-6.4,14.3-14.3,14.3h-57.6
		c-7.9,0-14.3-6.4-14.3-14.3V372.4C266.8,364.5,273.2,358.1,281.1,358.1z"/>
	<rect id="Rectangle_200" x="276.6" y="373.7" class="st3" width="66.6" height="122.2"/>
	<path id="Path_276" class="st4" d="M317.9,365.6h-16c-0.7,0-1.2,0.6-1.2,1.3c0,0.7,0.5,1.2,1.2,1.2h16c0.7,0,1.2-0.5,1.3-1.2
		C319.2,366.2,318.6,365.6,317.9,365.6C317.9,365.6,317.9,365.6,317.9,365.6z"/>
	<circle id="Ellipse_39" class="st5" cx="281" cy="366.8" r="1.7"/>
	<path id="Rectangle_201" class="st4" d="M309.9,499.9L309.9,499.9c3,0,5.5,2.5,5.5,5.5l0,0c0,3-2.5,5.5-5.5,5.5l0,0
		c-3,0-5.5-2.5-5.5-5.5l0,0C304.4,502.4,306.9,499.9,309.9,499.9z"/>
</g>
</svg>
