<?xml version="1.0" encoding="utf-8"?>
<!-- Generator: Adobe Illustrator 22.1.0, SVG Export Plug-In . SVG Version: 6.00 Build 0)  -->
<svg version="1.1" id="Livello_1" xmlns="http://www.w3.org/2000/svg" xmlns:xlink="http://www.w3.org/1999/xlink" x="0px" y="0px"
	 viewBox="0 0 365 846.5" style="enable-background:new 0 0 365 846.5;" xml:space="preserve">
<style type="text/css">
	.st0{fill:#FF6725;}
	.st1{fill:#27234D;}
	.st2{fill:#FBC322;}
	.st3{fill:#D4024A;}
	.st4{fill:#00FFCA;}
</style>
<g id="Group_65" transform="translate(-661.122 1933.938)">
	<g id="Group_64" transform="translate(-567.391 -226.705)">
		<path id="Path_257" class="st0" d="M236.4-1319.5c40.7,21.3,85.9,15.5,128.8,4.8c49.2-12.3,99.2-31.8,150.8-27.4
			c53.6,4.6,96.4,40.5,143.6,62.5c19.7,9.2,40.9,16.2,62.9,16.1c25.9,0,49.6-10.5,70.9-24.6c45.2-29.9,100.3-90.1,159.8-59.3
			c36.6,19,59.2,66.4,104.1,68.9c58.1,3.3,86.6-62.4,132-86c6.9-3.5,14.2-5.9,21.9-7c4.7,13.5,15.6,24.3,26,34.2
			c8.1,7.7,16.8,15.3,22.5,25.1c0.5,0.9,1,1.9,1.5,2.8c-7.6,13.6-19.5,26.1-28.4,35.8c-27.5,30-61.9,75.5-31.6,116
			c11.5,15.3,25.2,18.7,39.5,16.2c3,7.1,6.9,13.7,11.7,19.8c13.3,17.2,33.1,29.5,55.2,29.6c14.2,0.1,27.8-4.7,41.8-5.7
			c18.6-1.4,30.2,6.4,40.2,21.1c11.1,16.3,20.7,31.9,41.9,35.1c19.4,2.9,39.9-5.2,54-18.4c21.4-20,27.2-47.5,27.6-76.2
			c36.1,12.1,77.5,4.8,104.5-23.1c28.3-29.2,37.8-74.5,26.7-113.3c18-15.2,35.6-30,52.9-43.3c24.9-19,50.3-37.5,76.5-54.6
			c27.7-18.1,57.8-34.3,91.2-38.1c61.7-7,120.5,25,168,61.1c45.3,34.4,85.5,75.5,134.5,105c43.2,26,91.7,39.1,142.1,35.7
			c47.6-3.2,94.4-19.9,132.6-48.5c18.3-13.7,33.8-29.9,47.6-48c17.3-22.7,33.1-47.1,58.6-61.4c2.5-1.4,0.3-5.3-2.3-3.9
			c-20.9,11.7-35.6,30-49.7,48.9c-14.9,19.9-29.9,39-49.2,54.8c-40.4,33.1-92.2,51.9-144.3,54c-55.1,2.2-105.6-15.9-150.8-46.7
			c-47.5-32.3-87.5-74.2-134.9-106.7c-45.4-31.2-100.4-56.2-156.9-48.2c-58.4,8.3-109.5,50.6-155.2,84.9
			c-21.3,16-41.8,33.2-62.3,50.4c-7.6-22.8-23.4-40.7-38.6-58.9c-10.6-12.7-20.4-25.6-27.4-40.8c-6.4-14.1-10.7-29-16-43.5
			c-8.2-22.6-19.6-45.1-40.5-58.5c-18.9-12.1-39.8-10.9-59-0.1c-5.7,3.3-11.2,6.9-16.5,10.8c-27.9-43.1-87.4-28.6-124.9-9.1
			c-14.1,7.4-34.4,15.7-43.9,30.1c-32,6.4-68.8,28.3-67.4,63.1c0.1,2.6,0.5,5.2,1.1,7.8c-55.6,8.4-78.5,75-131.2,90.5
			c-54.3,16-82-44.3-123.2-65.7c-49-25.5-99.2,10.3-137.1,39.4c-23.1,17.7-47.5,36.2-76.6,42c-26.4,5.2-52.7-1.5-76.8-12.3
			c-44.2-19.8-83.5-52.4-131.9-62.1c-48.6-9.7-97.7,5.9-144.1,18.6c-48.9,13.5-102.5,27.2-150.2,2.2
			C236.1-1324.7,233.8-1320.8,236.4-1319.5z M1273.3-1441.9c-1.3,3-2.2,6.3-2.4,9.6c-1.9,21.9,15.6,40.6,31.6,52.8
			c11.1,8.5,23.2,16.3,32.3,27.1l0,0c-2.2,1.1-4.4,2.3-6.4,3.5c-35.9,21.6-48.2,63.4-35.1,102.4c8,23.4,22.9,43.8,42.6,58.6
			c-5.2,0.2-10.3,1-15.3,2.5c-21,6.4-50.9,32.1-77.2,38.7c-9.4-25.2-6.4-53.7,1.8-79.2c5.1-15.8,13.1-30.1,19.3-45.4
			c3.9-9.8,6.5-20.1,4.1-30.6c-0.6-2.5-1.4-5-2.4-7.4v-0.1c8.7-17.4,9.2-38.3-5.5-52.6c-11.8-11.5-29.5-15.9-45.7-14.7
			c-2.8-10.9-1.4-22.4,6.8-33.7C1233.4-1426.6,1253.3-1437.3,1273.3-1441.9L1273.3-1441.9z M1470.7-1170.9c-5.5-7-10-14.9-13.1-23.3
			c0.1-0.1,0.2-0.2,0.3-0.2c39.4-31,42.5-87.1,13.7-126.1c-8.7-11.8-17.1-22.7-20-37.2c1-0.5,2.1-0.9,3.2-1.3
			c18.9-6.9,42.6-1.1,57.1,12.6c22,20.9,10,48.8,1.2,73.1c-10.6,29.3-9.7,58.9-7.3,89.5c0,0.2,0,0.5,0.1,0.7
			C1494.5-1178.1,1482.8-1174,1470.7-1170.9L1470.7-1170.9z M1506.4-1177.5c0.9,11.6,1.8,23.3,1.9,34.9
			c-12.9-5.3-24.4-13.5-33.8-23.8C1485.4-1169.3,1496.1-1173.1,1506.4-1177.5L1506.4-1177.5z M1445.8-1372.6c0,4.1,0.3,8.3,0.9,12.4
			c-5.7,3.2-10.6,7.6-14.4,13c-1.9,2.7-3.5,5.5-4.9,8.5c-0.6-0.7-1.2-1.5-1.8-2.2c-21.9-24.9-58.2-26-87-13.3
			c-7.5-9.2-17.4-16.8-27.3-24.2c-21-15.6-44.7-42.3-31.8-64.7c2.9-0.5,5.9-0.8,8.8-1c30.4-2.2,60.6,6.2,91.1,5.2
			c24.9-0.8,44-9.5,63.9-22.6c1.5,2.7,2.7,5.5,3.6,8.4C1455.5-1427.2,1445.5-1399,1445.8-1372.6L1445.8-1372.6z M1351-1326
			c-1.1-8.9-4.4-17.4-9.7-24.6c14.5-6.6,30.6-8.7,46.3-6.1c17.7,3,29.7,11.4,37.9,22.9c-7.4,20.1-5,43.3-10.1,64
			c-3.4,13.7-11.5,28-23.8,35.6c-14.3,8.8-30.7,3.7-38.5-10.8C1339.5-1270.6,1354.2-1299.3,1351-1326L1351-1326z M1447.5-1355.5
			c0.9,4.6,2.4,9,4.3,13.3c5.5,12.2,15.1,21.7,22.1,32.9c15.9,25.5,17.1,59.3,2.9,85.8c-5.2,9.6-12.3,18-20.7,24.9
			c-0.4-1.3-0.8-2.6-1.1-4c-11-42.1,2.1-94.5-24.2-131.8C1434.2-1343,1439.4-1350.5,1447.5-1355.5L1447.5-1355.5z M1465.3-1169.5
			c-25.8,6-52.4,7.1-78.7,0.9c-12.2-2.9-23.9-7.6-34.7-14c13.5,1.9,26.6,6.1,40.2,7.5c21.8,2.2,43.7-3.6,61.6-16.2
			c2.3,6.5,5.4,12.7,9.3,18.5C1463.8-1171.7,1464.5-1170.6,1465.3-1169.5L1465.3-1169.5z M1343.9-1187.7
			c-31.6-21.7-54-57.1-51.3-96.5c2-28.4,20.4-52.3,44.8-64.7c9.2,13.1,10.4,28.1,8.7,44.3c-2.3,22-8.3,47,6.1,66.5
			c10.9,14.8,30,16.3,44.4,5.7c18.9-13.8,24.1-36.4,26.2-58.3c1.2-12.1,2.2-25.9,5.9-38.2c15.2,26.1,14.6,64.5,16.8,93.5
			c1,13.3,2.7,26.8,6.7,39.6c-13.8,10.1-30.3,15.9-47.4,16.6C1384.2-1178.3,1364.2-1186.4,1343.9-1187.7L1343.9-1187.7z
			 M1441-1465.3c-4.8,3.4-9.7,6.7-14.8,9.6c-13.3,7.5-27.8,11.1-42.9,12c-30.8,2-61.2-6.4-92-5.1c-2.7,0.1-5.4,0.3-8.3,0.7
			c3.2-3.7,7-6.8,11.1-9.4c25.6-16.2,55.9-33.2,86.8-34.6C1404-1493,1428.3-1484.4,1441-1465.3L1441-1465.3z M1638.7-1273.6
			c-25.6,21.4-51.4,42.5-79,61.1c-15.6,10.6-32.1,19.8-49.3,27.6c-0.7-9.1-1.4-18-1.7-26.3c-0.5-18,0.7-35.9,6.1-53.1
			c4.1-12.9,10.2-25.3,13-38.6c3.8-18.3-0.1-35.7-14.4-48.2c-16.4-14.3-42.5-19.7-62.5-11.1c-1.4-11.4-0.3-23,0.9-34.4
			c2.4-22.3,6.4-46.9-4.8-67.5c0.6-0.4,1.3-0.9,1.9-1.3c12.6-8.8,26.2-17.9,42.2-17.9c14.7,0,28,7.7,38.2,17.8
			c22.7,22.5,28.4,54.5,40,83.1c10,24.8,26.9,43.7,43.6,64.2C1624.3-1304.4,1633.4-1289.8,1638.7-1273.6L1638.7-1273.6z
			 M1512.9-1140.8c-0.1-12.9-1.1-26-2.1-38.7c46.6-21,89.1-55.8,129.3-89.6c2.4,8.4,3.7,17,3.9,25.8c1.4,48.5-28.1,97.6-78,106.9
			C1548.3-1133.1,1529.9-1134.6,1512.9-1140.8z M1245.1-1142.3c20.9-5.4,42.5-21.9,59.3-31c12-6.5,24.1-10.3,37.5-10.1
			c15.4,10.4,32.8,17.4,51.1,20.7c25.2,4.6,51.1,3.8,75.9-2.3c10.7,12.2,24.2,21.6,39.3,27.3c-0.2,14.5-1.9,28.8-6.6,42.7
			c-8.8,26.2-30.3,47.7-59.1,49.5c-14.3,0.9-27.4-4.1-36.7-15.1c-7.7-9-12.5-20.1-20.6-28.8c-17.5-18.8-41-11.9-63.2-8.4
			c-30,4.7-56.1-8.6-71.8-34.5C1248.3-1135.5,1246.6-1138.9,1245.1-1142.3L1245.1-1142.3z M1263.2-1303.8
			c3.7,12.8-0.2,25.5-6.1,38.2c-17.2,37.2-32.4,81.1-18.2,120c-15.1,2.5-28.8-2.2-38.6-21.8C1172-1224.1,1238-1261.4,1263.2-1303.8
			L1263.2-1303.8z M1216.4-1372c16.7-1.3,33.8,3.5,44.4,17.1c10.4,13.2,9.1,27.3,2.9,40.7c-7.4-12.9-20.3-22.7-30.5-33
			C1225.7-1354.7,1219.7-1363.1,1216.4-1372L1216.4-1372z"/>
		<path id="Path_258" class="st1" d="M98.2-776.8c27.6,15.8,60.2,7,86.5-7.3c32.3-17.6,61.2-43.9,100-44.3
			c35.7-0.4,68.6,16.5,102.9,24c28.5,6.2,56.3,4.1,81.9-10.5c51.8-29.6,81.2-89.5,141.2-106.2c64.8-18,131.7,10,197.3,5.1
			c27.8-2.1,54.3-10.8,76.2-28.4c21.1-17.1,36.3-40.1,49.6-63.4c14.2-24.9,26.7-51,42.9-74.7c19.3-28.3,43.7-48.6,75.6-61.7
			c31.4-12.8,65.3-20.4,93.8-39.5c17.2-11.5,31.7-26.2,44.3-42.4c-10.8,30.2-0.9,67.1,24.1,89.3c7.9,7.2,17.5,12.3,27.8,15
			c14.8,3.7,29.9,0.3,44.9,1c34.4,1.6,40.2,34.4,54.7,58.7c10.4,17.5,28.7,27.3,48.1,16.8c10.6-5.7,18.8-15.2,27.5-23.4
			c15-14.1,29.2-20.7,50.2-17.1c14.5,2.5,28.9,6.8,43.6,3c10.4-2.8,19.6-8.8,26.3-17.2c15.6-18.7,21-44.7,23.1-68.4
			c0.2-1.8,0.3-3.6,0.4-5.4c14-3.5,26.9-11.5,35.6-23.2c16.1-21.6,16.9-52.5,2.1-75c-9.4-14.2-23.4-25.2-31-40.6
			c-2.8-5.7-4.8-11.7-6.2-18c4.2-2,8.5-3.7,12.8-5.2c28.8-9.7,58-4.3,83.8,10.8c44.1,25.8,74.5,70,119.7,93.9
			c19.7,10.4,41.8,15.2,63.8,10.7c25.4-5.2,45.8-22.5,60.1-43.6c39.9-58.7,36.1-136.6,30-204c-3.5-39.1-10.5-78.3-11.5-117.6
			c-0.8-30.3,2.4-65.4,24.2-88.6c28.5-30.3,71.8-21.1,108.1-14.9c32.5,5.5,63.8,6.1,95.2-5.1c29.4-10.5,55.9-29.1,75.2-53.8
			c21.7-27.9,31.8-62.2,42.3-95.4c11-34.8,23-69.6,51-94.5c24.9-22.3,60.7-36.1,91.9-18.1c2.5,1.5,4.8-2.4,2.3-3.9
			c-47.3-27.4-102.2,12.1-125.3,53.6c-16.8,30.3-24.3,64.8-35.7,97.2c-12.5,35.2-31,66.8-61.7,88.9c-27.5,19.9-61.2,31.3-95.2,31
			c-34.2-0.3-67.5-13.4-101.8-10.6c-62.1,5-76.9,66.6-74.7,118.9c3.3,79.3,23.6,158.3,10.8,237.9c-8.7,54-41.8,122.1-105.7,119.6
			c-50.6-1.9-88.1-48-123.6-78.4c-37.1-31.8-81.2-56-130.4-36.1c-2.1,0.9-4.2,1.8-6.2,2.7c-1.3-7.8-2.2-15.6-2.8-23.5
			c-2-24.7-2.1-54.2-21.9-72.1c-5.5-5-12.2-8.5-19.4-10.2c4.3-10.8,5.5-22.2-1.3-33.2c-12.2-19.8-40.7-18.6-60-12.2
			c-32,10.8-59.1,44.5-95.9,32.6c-26.3-8.5-44.9-32.4-71.6-39.6c-21.8-5.9-40.8,6-49.6,25.9c-11.5,26.1-10.4,55.6-27.3,79.6
			c-16.1,22.9-41.7,39.3-53.6,65.3c-12,26.3-0.9,52.1,17.7,72c5.1,5.5,10.6,10.6,16.2,15.5c-17.2,23.4-38.1,43.8-64.2,57.1
			c-29.9,15.2-63.4,21.9-93.3,37.1c-50.9,25.8-74.3,77.9-100.8,125.4c-13.4,24-28.4,48-49.7,65.9c-24.9,21-56.3,29.1-88.5,29.5
			c-60.4,0.7-122-21.5-182-6.3c-57.2,14.5-87.6,67-133.1,99.6c-27.5,19.7-57.8,25.2-90.8,18c-30.9-6.7-60.1-20.5-91.8-23.6
			c-34.1-3.3-62,11.6-89.9,29.3c-30.8,19.5-70.5,43-106.6,22.3C98-782.1,95.7-778.2,98.2-776.8z M1512.3-1441.6
			c-13.2-1.9-27.4,1.7-39.1,8.9c-11.9,7.3-21,18.4-25.7,31.5c-3.4-7.7-7.8-14.8-13.3-21.2c-36.7-42.3-92.2-22.2-129,9.1
			c-4.1-0.1-8.2,0.6-12.1,2c-25.9,8.9-38.2,38.9-42.1,63.7c-0.4,2.6-0.8,5.2-1.1,7.9c-17.7,32.3-32.6,66.6-53,96.8
			c-1,1.5-2,2.9-3,4.3c-7.8-6.6-15.1-13.9-21.6-21.7c-11.7-14.5-19-32.5-14.1-51.2c3.7-14,13.1-25.6,22.8-36.1
			c17.6-19.1,37.3-36.2,45.9-61.5c8.1-23.7,7.3-59.8,30.2-75.3c26.3-17.8,54.6,8.9,75.9,22.5c23.8,15.3,46.6,19.9,73,7.4
			c27.5-13.1,53.5-38.2,86.6-29.9c15.9,4,25.9,18.3,22.4,34.7C1514.3-1447,1513.4-1444.3,1512.3-1441.6L1512.3-1441.6z
			 M1556.8-1177.7c-4.7,0.9-9.4,1.2-14.2,1c6.4-13.2,9.4-27.8,8.7-42.5c-1.6-29-19.5-49-41.5-66.1c-1.4-1.1-2.7-2.1-4.1-3.2
			c7.1-7.1,14.5-14,22.3-20.4c5.2,6.1,9.6,12.9,13,20.1c14.1,30.1,15.9,65.8,16,98.5C1557.1-1186.1,1557-1182,1556.8-1177.7z
			 M1339.4-1389.1c-5.5-12.2-16-21.2-28.3-23.6c0.9-0.7,1.8-1.5,2.7-2.2c27.7-22.3,66.3-37.7,100-18.5c15.5,8.8,25.8,23.1,31.6,39.4
			c-2,8.3-2.4,16.9-1.3,25.4c1,8.2,3.2,16.2,6.4,23.9c-4.2,30.8-23.1,69.6-57.3,70.9c-9.5,0.4-16.8-2.6-22.5-7.5
			c7.7-26.5,19.6-57,1.7-81.4c-7.6-10.4-18.3-16.7-30.2-19.5C1341.3-1384.6,1340.4-1386.9,1339.4-1389.1z M1396.9-1202.5
			c-7.4,3.1-15.2,5.3-23.1,6.7c-10-24-11.8-51.5-5.6-76.7c0.3-1.4,0.7-2.8,1.1-4.2c16.6,12.2,38.4,7.5,54.1-5.5
			c16.2-13.5,26.6-33.3,30.8-54.6c9.1,17.3,23.1,32,38.8,44.2c1.9,1.5,3.9,3,5.8,4.5c-18.8,19-36.5,39.6-56.7,56.9
			c-18.3-1.7-33,9.8-42.8,25C1398.4-1205.1,1397.6-1203.8,1396.9-1202.5L1396.9-1202.5z M1436.7-1226.9c-6.8,5.5-14,10.6-21.4,15.1
			c-3.3,2-6.6,3.8-10,5.5C1413.4-1217.5,1423.7-1226.1,1436.7-1226.9L1436.7-1226.9z M1369.2-1195.1c-20.2,2.5-40.6-1.7-58.9-15.4
			c-28.1-20.9-48.8-55.2-51.8-90.3c-2.7-31.2,10.5-62.9,41.3-74.1c12.6-4.6,26.1-5.7,39.3-3.2c4.6,15,5.1,31.9,7.1,46.7
			c2.4,17.7,5.5,38.1,19,51.1c0.2,0.2,0.5,0.4,0.7,0.7c-2.3,7.3-3.9,14.7-5,22.3C1358.3-1236.2,1361.2-1214.8,1369.2-1195.1
			L1369.2-1195.1z M1343.7-1376.8c9.2,2.7,17.5,7.6,23.7,15.2c17.8,22,7.8,50.6-0.2,77.1c-9.6-10.7-13.8-27.4-16-41.4
			C1348.8-1342.6,1348.3-1360.4,1343.7-1376.8L1343.7-1376.8z M1448.3-1383.9c2.2,9.3,3.2,18.8,2.9,28.3c-1-3.6-1.9-7.2-2.4-10.9
			C1447.9-1372.2,1447.7-1378.1,1448.3-1383.9L1448.3-1383.9z M1450.3-1394.2c5.9-21.5,22.7-38.9,46.7-42.9c4.5-0.8,9-0.9,13.5-0.4
			c-3.6,7.3-8.6,14.2-13,20.9c-12.2,18.5-24.4,39.4-13.2,61.4c6,11.6,16.4,20.3,26,28.7c5.1,4.5,10,9.2,14.6,14.2
			c-8,6.6-15.7,13.6-23,20.9c-19.1-15.1-37-31.3-46.7-53.1C1457.4-1361.3,1455.7-1378.2,1450.3-1394.2L1450.3-1394.2z
			 M1537.7-1177.1c-9.9-1.2-19.4-4.6-27.8-10.1c-20.5-13.5-37.5-37.5-62.5-43.2c15.8-13.7,30.2-28.8,42.7-42
			c4-4.3,8.1-8.6,12.4-12.8c24.5,19.5,46.5,40.2,44.4,75.1C1546.1-1198.6,1543-1187.4,1537.7-1177.1L1537.7-1177.1z M1535-1172.4
			c-10.8,17.9-28.2,30.8-48.4,35.8c-34.7,8.6-72.7-4.2-95.8-31.3c-1.4-1.7-2.8-3.4-4.1-5.1c2.3-4.6,4.5-9.2,6.7-13.5
			c2-4,4.2-8.1,6.6-12c15.1-6.9,29.5-16.9,43-28.1c4.2,0.6,8.3,1.9,12.1,3.7c25.3,11.7,41.2,37.9,67.9,47.5
			C1526.9-1174,1530.9-1173,1535-1172.4L1535-1172.4z M1384-1176.9c-3-4.4-5.6-9-7.9-13.8c5.8-1.2,11.5-2.9,17-5
			C1390-1189.5,1387.1-1183.1,1384-1176.9L1384-1176.9z M1381.7-1172.3c-5,9.6-10.8,18.6-19.1,25.4c-35.1,28.9-78.3-16.4-104-37.7
			l-47.3-39.4c-4.2-3.5-8.5-7-12.8-10.6c3.5-5.9,8-11.3,13.2-15.8c11.5-10.1,23.1-18.5,30.1-32.6c8.3-17,9.7-35.8,12.1-54.3
			c14.4-26.3,30.5-51.4,52.7-71.3c10.3,0.8,19.6,6.3,25.2,14.9c2.1,3.3,3.9,6.8,5.4,10.5c-27.3-4.4-58.9,8.3-72.5,31.3
			c-31.2,52.8,6.4,128.7,57.4,154.1c15.2,7.8,32.5,10.6,49.5,8.1c2.7,5.8,5.9,11.4,9.6,16.7
			C1381.3-1172.9,1381.5-1172.6,1381.7-1172.3L1381.7-1172.3z M1292.2-1400.8c-14.3,15.2-25.9,32.4-36.3,50.4
			c1.4-8.2,3.9-16.3,7.3-23.9c6.6-14.3,17.9-29.2,33.9-33.5c0.9-0.2,1.8-0.4,2.7-0.6C1297.1-1405.9,1294.6-1403.4,1292.2-1400.8
			L1292.2-1400.8z M1242.9-1299.1c-5.7,20-17.9,31.1-33.1,44.2c13.9-22.9,25.6-47.8,38.4-72
			C1247.1-1317.5,1245.4-1308.2,1242.9-1299.1L1242.9-1299.1z M1556.6-1333c-9.9,5-19.2,11-28,17.8c-6.1-6.7-13-12.6-19.9-18.7
			c-12.3-10.9-25.4-23.9-24.6-41.6c0.6-14,9-26.4,16.4-37.7c4.7-7.2,10.2-15.2,14.2-23.5c24.1,5.6,34.4,33.2,37,58.3
			C1553.3-1363.5,1553.7-1347.9,1556.6-1333L1556.6-1333z M1561.3-1178.7c1.5-27-0.5-54.1-6-80.6c-3.2-15.3-8.5-30.5-17-43.7
			c-2-3.1-4.2-6-6.6-8.8c8.1-6.4,16.7-12,25.9-16.8c2.1,9.6,6,18.7,11.4,26.9c9.3,13.7,22.9,24.3,30.2,39.4
			c7.8,16,7.5,35.4,0.2,51.6C1592.3-1194.7,1578.3-1183,1561.3-1178.7L1561.3-1178.7z M1191.5-1216.6c1-4.8,2.6-9.5,4.7-14
			c7.4,6.2,15,12.3,22.3,18.4l49,40.8c22.9,19.1,54.8,48.7,87.2,34.3c13.8-6.1,22.5-18.5,29.6-31.7c32.2,40.6,97.5,54.7,138.4,18.2
			c6.9-6.2,12.7-13.4,17.2-21.5c5.5,0.4,11.1,0.1,16.5-0.9c-1.3,21.5-5.7,43.6-16.7,61.8c-7.1,11.6-17.6,21.2-31.1,24.2
			c-17.7,4-34.6-4.1-52.2-4.8c-27.4-1.1-41.6,21.7-60.8,36.9c-11.5,9.1-26.5,13.3-39.1,3.5c-9.5-7.4-14.5-19.5-19.5-30.1
			c-9.5-20.2-19.9-40.6-44.4-43.7c-16.4-2.1-33.1,2.8-49.3-1.3c-12.1-3-22.7-10-31.1-19.1C1195-1163.9,1186.4-1191.6,1191.5-1216.6z
			"/>
		<path id="Path_259" class="st2" d="M134.1-1554.4c44.2-10.7,91.5-6.1,132.4,14c33.4,16.5,63,47.3,101.7,50.5
			c19.9,1.6,37.6-6.5,55-15.1c20.4-10.1,40.9-17.4,63.8-19c22.5-1.5,45,1.9,66.1,10.1c19.5,7.6,36.2,20.1,52.9,32.4
			c28.4,20.9,59.4,41.5,96.1,31.1c19.9-5.6,37.5-17.5,57.6-22.5c17.1-4.2,34.6-2.5,51.3,2.8c32.6,10.3,60.7,31.2,90.9,46.7
			c28.1,14.4,58.2,23.7,89.6,15.6c21.7-5.6,42.2-17.3,65-18c22.7-0.7,43.4,11,58.5,27.3c15.2,16.5,24.1,37.5,30,58.9
			c3,11,5.3,22.3,7.4,33.5c2,10.8,3,22.6,7.4,32.8c13.2,30.3,51.1,21,72.8,6.4c4.6-3.1,8.9-6.5,13.1-10.2
			c4.8,15.9,13.8,30.1,26.2,41.2c16.5,14.6,35,19.3,54.4,20.8c-7,8-12.6,17.1-16.7,27c-11,26.7-11,58.5,2.7,84.2
			c14.6,27.3,50.5,50.3,81,34.1c22.2-11.8,30.7-38.7,37.9-61c5.3-16.4,10.7-39.4,23.9-52.8c9.9,7.2,19.4,14.9,28.8,22.6
			c25.2,20.6,51.8,42.3,84.5,49.3c42.8,9.2,85-8.2,127-13.8c42.2-5.6,78.2,7.1,114.1,28.3c30.4,17.9,59.3,39.3,92.7,51.3
			c34.7,12.4,69,8.6,103.3-3c36.9-12.5,73.4-32.7,113.1-34.1c45.6-1.6,76.6,29.4,108.9,56.9c27.8,23.7,64.5,46.1,102.2,33.5
			c2.7-0.9,1.6-5.3-1.2-4.3c-46.7,15.6-86.5-22.9-118.9-50.7c-29.6-25.5-61.5-43.8-101.8-38.9c-39,4.7-74.2,24.4-111.3,35.9
			c-19.4,6-39.6,9.9-59.9,8c-19.7-1.8-38.6-8.8-56.2-17.7c-33.4-16.9-63.2-40.4-97.2-56.1c-15.1-7-31-12.3-47.5-14.4
			c-21.9-2.7-43.8,0.7-65.2,5.1c-45.3,9.3-89.6,20.7-132.7-2.5c-29-15.6-52.5-39.2-78.9-58.6c4-3.3,8.7-5.5,13.8-6.7
			c21.8-5,40.1,11.8,59.8,17.7c14.8,4.4,30.7,3,44.9-2.9c32.4-13.2,49.9-46.4,44.8-80.7c-2.5-16.7-9.9-32.4-21.2-44.9
			c-15.6-17.1-37.4-26.7-49.5-47.2c-20.7-35-16.3-79.1-39.8-112.9c-17.4-25-51.1-43.8-77.9-20.3c-20.9,18.3-22.4,44.2-17.9,69.5
			c-29.7,5.3-45.9,30.5-41.9,59.5c0.2,1.5,0.4,2.9,0.7,4.4c-18.6-12.3-36.9-24.8-61.1-22.7c-29.5,2.5-57.2,23.4-67,51.4
			c-4.5,13.1-5.1,27.1-1.8,40.5c-5.9,5.3-12.3,10.1-19.1,14.3c-17,9.9-44.5,17.6-58.1-1.7c-7.5-10.6-8.2-25.5-10.5-37.9
			c-2-10.6-4.1-21.2-6.9-31.7c-5.3-19.6-12.8-39-25.3-55.2c-10.8-14-25.1-25.8-41.8-32c-18.4-6.8-37.1-4.3-55.4,1.6
			c-20.7,6.6-40.5,16.1-62.7,15.5c-18-0.4-35.3-6.3-51.5-13.9c-30.6-14.3-58-34.7-89.3-47.4c-14.7-5.9-30.4-9.9-46.3-9.5
			c-18.2,0.5-34.5,7.5-50.8,14.9c-22.1,10-43.6,17.1-67.6,9.4c-19.3-6.3-36-19-52.1-30.9c-33.1-24.4-67-42.3-109.2-42.4
			c-20.5-0.1-40.9,4-59.8,11.9c-20.6,8.7-40,22.4-63.1,22.8c-43.7,0.6-78.3-38.8-116.4-54.9c-39.6-16.7-83.8-19.8-125.4-9.7
			C130-1558,131.2-1553.7,134.1-1554.4z M1375.6-1345.2c3.2,13.6,8.6,26.6,12.7,40c5.2,16.9,9.2,36.7-3.6,51.3
			c-1.3,1.5-2.8,2.9-4.3,4.2c-10-10.4-17.4-23.4-26.2-34.8c-9.7-12.4-21.2-24.7-36.8-29.2c-16.3-4.7-32.5,0.6-46.2,9.7
			c-8.2,5.5-15.5,12.2-22.9,18.7c-0.6-2.9-1-5.8-1.2-8.8c-3-40.9,33.9-77.2,74.7-75.5C1342.6-1368.7,1359-1356.5,1375.6-1345.2z
			 M1381.1-1341.6c11.8,7.7,24.1,14.4,38.4,15.8c6.8,0.7,13.7-0.3,20-3c1.9,7.8,3.6,15.6,5.2,23.5c4.1,20.2,17.7,60.9-5.9,73.5
			c-15.7,8.4-36.7-0.7-49.7-10.2c-2.2-1.6-4.2-3.3-6.2-5.2c8.6-7,14.6-16.1,14.9-30.1C1398.4-1299.7,1387.1-1320.2,1381.1-1341.6
			L1381.1-1341.6z M1416.4-1410.7c2.5,11.5,5.7,22.8,9.4,33.9c4.7,14.4,8.9,29,12.6,43.6c-9.8,4.1-21.2,3.7-32.2-0.4
			c-9.5-3.5-18.2-8.8-26.7-14.3c-2-8-2.6-16.3-1.8-24.5C1379.7-1392.1,1397.5-1406.9,1416.4-1410.7L1416.4-1410.7z M1423.5-1399.2
			c-1.1-4-2.2-8.1-3-12.2c14.6-1.7,29.2,3.5,37.4,18.1c7.9,14.2,5.4,33.3-3.3,46.5c-3.1,4.8-7.4,8.8-12.3,11.7
			C1436.3-1356.5,1429.5-1377.8,1423.5-1399.2L1423.5-1399.2z M1455-1189.5c-1.3-0.9-2.6-1.9-3.9-2.8c-13.8-9.4-28.6-17.6-44.8-22.1
			c-21.4-6-43.6-3.9-65.6-4c-1.6,0-3.2,0-4.8-0.1c12.7-11,30.7-16.8,44-26.4c6.9,7,15.1,12.6,24.2,16.3c11.1,4.4,24.8,6.8,36,1.2
			c13.8-6.8,17-22.1,15.9-36.4c-1.9-22.8-6.7-45-12.6-67c14.6-8.2,23.8-25.1,23.7-43.2c-0.2-26.6-22.1-44.1-47.5-41.7
			c-3.1-17.4-2.9-35.2,5.7-51.3c10.9-20.3,33.8-30.1,55.2-19.6c40.2,19.8,43.4,68.4,54.1,106.2c5,17.5,12.3,34.5,25.3,47.6
			c14.9,14.9,34.3,24.2,45.8,42.5c22.6,36,14,85.5-25.5,105.2c-21,10.5-41.7,8.1-62.4-1.6c-14.4-6.8-29.2-14.8-45.7-11.5
			C1465.8-1196.8,1459.9-1193.8,1455-1189.5L1455-1189.5z M1332.1-1214.8c17.4,0.8,35.3-0.3,53.1,1.3c25.1,2.3,46.6,13.4,66.5,27.3
			c-8.5,9.2-13.8,21.9-18,33.6c-8.6,24.1-13.5,54.1-33.2,72.2c-33.9,31-79.9-5.9-90.4-41C1300.5-1153.3,1308.9-1190.8,1332.1-1214.8
			L1332.1-1214.8z M1249.4-1280.4c9-8,17.8-16.2,28.2-22.4c20.3-12.1,41.8-10.1,59.3,5.7c16.2,14.7,26.2,34.3,40.5,49.6
			c-12.6,9.2-29.3,13-41.5,22.9c-2.2,1.8-4.3,3.7-6.3,5.8c-20.1-1.3-38.9-6.5-54.6-20.4C1262.7-1250.1,1253.8-1264.4,1249.4-1280.4
			L1249.4-1280.4z"/>
		<path id="Path_260" class="st3" d="M1260-1515.3c-9.6,20.5-2.2,42.4,0.6,63.5c3.1,23.4-5,43.1-17.5,62.5
			c-19.5,30.3-47.1,63.6-29.8,101.5c6.5,14.4,17.2,25.7,29.5,35c-4.2,3.4-8.1,7.2-11.7,11.2c-27,30.8-32.9,76.2-14,112.6
			c12.5,24,34.6,42.9,60,51.2c1.7,0.7,3.3,1.5,5,2c7.5,2.6,17.9,3.5,21.6,11.6c2.7,5.8,1.6,12.8-0.3,18.7
			c-7.3,22.7-32.5,34.6-54.4,37.8c-23.9,3.6-48.2-2.1-72.1-3.6c-19.6-1.3-38.9,0.4-57,8.5c-16.4,7.5-30.9,18.7-42.1,32.7
			c-24.1,29.6-31.2,66.3-21.7,103c3.2,12.3,7.2,24.7,7.1,37.6c0,12.3-3.8,24.3-9.2,35.2c-10.7,21.7-27.2,42.7-43.8,60.3
			c-9.8,10.5-21.1,18.8-34.5,24.2c-11.1,4.3-22.8,7.2-33.8,12.3c-16.1,7.6-30.9,21.7-30.3,40.7c0.1,2.9,4.6,2.5,4.5-0.5
			c-0.9-27.3,29.7-37.6,50.6-44.7c22.7-7.6,39.5-19.9,54.8-38.4c14.4-17.5,29.4-36,38.7-56.9c8.8-19.8,8.5-39.2,3.2-59.8
			c-5.5-21.5-10.1-41.3-5.2-63.4c4.4-19.3,13.8-37.2,27.2-51.7c13.2-14.5,30.2-25.7,49-31.3c23.2-6.8,47.6-3,71.3-0.5
			c20.8,2.2,41.8,3.4,61.9-3.7c16.9-6,33.6-17.6,39.8-35.1c2.5-7.2,4-16.3,0.6-23.5c-1.4-2.9-3.6-5.3-6.2-7
			c6.3,0.3,12.6-0.1,18.9-1.3c9.6-1.7,18.7-5.3,26.9-10.5c8.9,8.3,20.4,13.6,32.8,12.5c41.2-3.5,47.6-57.6,62.7-86.4
			c10.7-20.3,28.9-38,53.5-29.4c10.7,3.7,19.8,10.6,30.2,15.1c8.5,3.7,17.5,5.5,26.8,5.4c17.9-0.3,36.5-8.4,46.3-23.8
			c9.4-14.9,9.5-35.2,0.5-50.3c-11.2-18.7-31.3-18.9-50.3-23.3c-25-5.7-33.6-26.8-34.4-50.2c3-0.5,6-0.8,9.2-1.1
			c22.2-2.2,41.1-7.1,54.8-26.2c9.3-12.9,13-28.9,11.8-44.7c-2.4-32.4-25.3-64.6-58.4-70.7c-3-0.5-6-0.9-9-1.1
			c2.4-22.3,5.4-44.5,11-66.3c6.1-23.8,16.1-48.6,35-65.1c18.1-15.9,40.8-19.3,64.1-17.4c20,1.6,39.9,6,60.1,5.1
			c20.3-0.9,40-7.7,57.4-18.1c38.8-23.2,63.9-62.3,78.7-104.1c8.2-23.3,13.7-47.5,18.1-71.8c4.7-25.8,7.8-52.3,17.6-76.8
			c8.8-22.1,23.3-41.3,45.8-50.3c19.4-7.8,42-7.3,58.7,6.5c2.2,1.9,4-0.3,1.9-2.3c-25.9-24.8-68.4-13-90.6,11.1
			c-33.3,36.1-33.1,93.1-43.5,138.5c-11,48.8-30.1,98.1-69.3,131.2c-17.5,14.7-38.2,25.9-60.8,30c-21.4,3.9-42.7,0-64-2.4
			c-19.5-2.2-40-3-58.3,5.3c-19.2,8.6-33,25.1-42.2,43.6c-15.9,31.8-20.1,67.7-23.8,103.1c-34.4-1.1-79,10.8-93.2-27.9
			c-3.4-9.2-6.2-18.8-13.9-25.4c-6.4-5.5-14.8-8.2-23.2-8.7c-15.3-0.8-30.2,5.5-40.1,17C1331.4-1532.1,1277.2-1552.2,1260-1515.3z
			 M1519.3-1455c-1,10.6-2.1,21-3.5,31.4c-0.7,4.7-1.3,9.4-2,14.3c-3.6-8.4-9.2-15.7-17.5-20.3c-34.7-19-62.6,22.2-78.8,46.4
			c-10,14.9-23.6,31.4-41.4,36.8c-13.8,4.2-25-0.7-32.3-9.8c4.4-4.1,8.2-8.8,11.3-14.1c10.7-19,1.9-37.5-5.9-55.7
			c-1-2.3-2-4.7-2.8-7.2c8.3-21.9,16.1-43.9,5.8-66c-0.1-0.3-0.3-0.6-0.4-1c13.1-16.1,38.5-23.7,56.2-10.5
			c10.1,7.5,11.7,20.1,16.7,30.8c3.2,7.3,8.7,13.4,15.5,17.7C1463.8-1447.9,1492.5-1456.1,1519.3-1455L1519.3-1455z M1351.8-1468.6
			c-1.3,9.8-4.3,19-7.8,28c-4.9-17.5-5.2-36.6,3.4-52.8c0.3-0.6,0.7-1.1,1-1.8C1351.9-1486.9,1353.1-1477.7,1351.8-1468.6
			L1351.8-1468.6z M1269-1262.7c20.5-8.7,44.1-11.4,67.2-9.7c21.4,1.6,41.5,7.7,62.3,12.2c18,3.9,37.7,5.8,54.5-3.2
			c2-1.1,4-2.3,5.9-3.7c-4.5,9.3-9,18.5-14.8,27.1c-12.3,18-29,25.2-50.1,27.5c-16.2,1.7-34,0.9-49,8c-1.1,0.5-2.1,1-3,1.6
			c-5.7-4-11.5-7.6-17.5-11c-5.6-8.6-13.7-15.9-21.8-21.5C1291.7-1243,1277.5-1251.4,1269-1262.7L1269-1262.7z M1277.3-1248
			c12,10,26.4,17.3,37,28.6c-7.6-3.9-15.1-7.3-22.2-10.6c-13-5.9-27.9-13.3-41.2-22.7c4.6-3.2,9.4-5.8,14.4-8.3
			C1268.6-1256.1,1272.7-1251.8,1277.3-1248L1277.3-1248z M1348-1090.4c-10.8-11.8-16-29.5-17.7-45c-2.2-19.4-6.8-48.6,10.9-61.9
			c24.1,18.3,42.2,43.3,31.1,75.2C1367.9-1109.1,1359.5-1098,1348-1090.4L1348-1090.4z M1331.8-1193.8c0-1.2-0.2-2.5-0.4-3.6
			c-0.6-2.9-1.4-5.8-2.6-8.5c3,1.9,5.9,3.9,8.7,5.9C1335.4-1198.2,1333.5-1196.1,1331.8-1193.8L1331.8-1193.8z M1493.5-1316.4
			c9.5-20.8,15.7-43.1,20.2-65.5c0.5-2.2,0.9-4.3,1.2-6.4c1.9,15.7-0.7,32.1-2.5,47.6c-0.9,7.2-1.4,14.4-1.6,21.6
			c-7.1,1.5-13.8,4.2-19.9,8.1C1491.8-1312.8,1492.6-1314.6,1493.5-1316.4L1493.5-1316.4z M1266.4-1266.8c-4-6.4-5.4-14.1-4.2-21.5
			c3.6-22.4,27.4-36.2,45.8-45.4c10.7-5.4,22.3-11.2,31.9-19.1c9.3,11.2,24.7,15,38.7,10.3c36.2-12.2,46.2-54.9,74.2-76.9
			c18.2-14.3,43.3-13.9,55.2,8.3c1.9,3.4,3.3,7,4.4,10.8c-5.3,33-13.4,66.5-29.6,95.5c-3.4,3.2-6.4,6.8-9.1,10.6
			c-3.4,5-6.5,10.1-9.2,15.5c-15.9,16.5-36.3,19.3-59.4,15c-21.2-3.9-41.6-10.6-63.3-12.9C1316.5-1279,1289.6-1276.9,1266.4-1266.8
			L1266.4-1266.8z M1341.5-1359.6c-4.4-7-6.8-15-7.1-23.3c-0.6-14.9,4.3-29.6,9.8-44.3c7.2,17,16.6,34.2,8.4,52
			C1350-1369.4,1346.2-1364,1341.5-1359.6L1341.5-1359.6z M1519.2-1320.6c-1.3,0.1-2.5,0.4-3.8,0.5c0.2-20.9,5.8-41.3,4.5-62.2
			c-0.3-6.2-1.4-12.3-2.9-18.3c2.8-18,4.5-36.1,6.5-54.3c8,0.4,15.9,2.4,23.2,5.8c33.6,16,50.8,62.8,33.6,96.2
			c-5.9,11.3-15.6,21.1-27.4,26.3C1542.3-1322,1530.4-1321.8,1519.2-1320.6L1519.2-1320.6z M1351-1087.4
			c21.3-15.4,34.2-41.5,26.8-68.9c-4.9-18.3-17-32.4-32-43.9c15.3-8,34.9-6.3,51.6-8.3c17.5-2.1,33-7.8,44.7-21.5
			c11.2-13.2,17.6-29.6,25.5-44.8c7.6-7.9,13.8-17.7,19-27.6c1.6-1.5,3.3-2.9,5.1-4.3c5.8-3.9,12.3-6.6,19.1-7.9
			c0.3,10.5,2,20.8,6.4,30c9.1,18.7,26.7,23,45.6,26.2c12.3,2.1,24.2,5.5,31.7,16.1c7,9.8,9.2,22.7,6.8,34.3
			c-5.2,25-31.4,37.5-55.2,35.2c-22.2-2.1-38.3-21.1-60.5-22.6c-17.9-1.1-32,10.7-41.3,24.9c-11.1,16.7-15.4,36.1-23.5,54.2
			c-8.8,19.8-24.9,43.4-50,38.6C1363.4-1078.8,1356.5-1082.2,1351-1087.4L1351-1087.4z M1276.9-1082.9c-21-10.8-33.4-36.7-20.4-58.7
			c11.5-19.5,35.1-16.8,53.9-23.1c5.6-1.8,10.6-5,14.6-9.3c-0.4,3.2-0.6,6.5-0.5,9.7c0.3,21.1,0.8,44.1,10.7,63.2
			c2.5,4.8,5.6,9.2,9.3,13.1C1324.8-1076.8,1299.4-1075.5,1276.9-1082.9L1276.9-1082.9z M1246.8-1249.8c17.4,12.2,37.9,21,56.1,29.8
			c5.8,2.8,12,6,18.3,9.6c0.7,1.1,1.3,2.2,2,3.4c4.7,9,6.3,19.9-0.2,28.6c-6.3,8.4-17.1,10.7-26.8,12.6
			c-17.1,3.2-34.4,6.1-43.8,22.5c-9.6,16.8-6.5,37.4,6.1,51.7c0.3,0.3,0.6,0.7,0.9,1c-1.7-1-3.4-2-4.9-3
			c-40.4-27.1-55.4-80.3-33.8-124.1C1226.7-1230.4,1235.7-1241.3,1246.8-1249.8L1246.8-1249.8z M1279.1-1528.5
			c11.5-4.5,25.4-1.5,36.5,2.9c13.4,5.3,24.3,14.2,30.5,25.6c-0.2,0.2-0.2,0.4-0.4,0.6c-10.6,16.7-11.5,37.6-7.1,56.5
			c0.7,3.1,1.7,6,2.7,8.9c-3.2,7.9-6.1,15.9-8.5,24.2c-4.6,17.1-5.7,38.5,4.6,53.9c-25.5,21.2-67.4,26.5-78.5,61.5
			c-3.4,10.7-1.4,20.6,3.5,29.4c-5.6,2.6-10.9,5.8-15.9,9.4c-21.2-15.8-37.4-36.8-34-64.6c5-40.4,44.3-66.5,52.1-106.2
			c4.6-23.4-6.6-45.5-5-68.8C1260.6-1508.4,1265.9-1523.2,1279.1-1528.5L1279.1-1528.5z"/>
		<path id="Path_261" class="st4" d="M9.8-1136.6c32.1,42.2,91.7,24.5,131.5,5.4c30.8-14.8,62.4-32.1,97.8-28.6
			c26.1,2.6,50.1,15.1,72.4,28.4c39.3,23.5,81.9,58.4,130.8,52.5c55.2-6.7,83.2-64,133.5-81.3c48.6-16.7,98.2,10.3,140,32.8
			c40.5,21.7,85,48.7,132.8,45.4c25.5-1.8,47.6-13.5,69.1-26.4c25.8-15.4,54-33.6,85.5-27.3c29.6,5.9,51.2,30,69.6,52.2
			c17.8,21.5,34.2,43.4,58.3,58.3c20,12.4,45.8,20.9,68.6,10.8c11.4-5.1,19.5-14.2,26.9-24c11.2-15,21.1-27.6,40-32.8
			c14.7-4.1,30.5-4.6,45.2-8.2c4.9,3.4,10.5,5.5,16.4,6c11.7,1.2,20.6-5.2,28-13.6c9.7-11.1,18.1-19.8,32.9-23.6
			c16.1-4.2,36.3-3.2,55.1-4.7c7.1,6.4,15.5,11.3,24.5,14.3c47.1,15.9,88.7-24.7,91.8-70.5c1.6-23.9-7.3-46.7-22.3-65
			c8.3,1.5,16.9,1.3,25.2-0.6c4.2-1,8.3-2.4,12.2-4.1c9.5-1,18.8-3,27.5-8.1c19.9-11.6,32.2-32.8,32.4-55.8
			c8.9-20,12.7-42.5,7.1-63.9c-11.4-43.3-66.1-70.4-102.7-39c-11.8,10.1-22.1,27.9-33.5,44.6c-14.1,1.2-28.3-0.1-40.9-7.7
			c-11.3-6.8-19.9-17.3-27.2-28.1c-3.5-5.2-7-10.8-10.6-16.4c4.1-6.2,8-12.6,11.9-18.9c13.6-22.2,27.3-46.1,49.1-61.3
			c25.5-17.7,56.7-18.4,86.4-14.8c29.2,3.5,58,10.6,87.6,11.2c27.7,0.5,53.2-6.7,76.1-22.5c23.1-16,42-37.1,64-54.5
			c27.3-21.7,58.9-32.7,93.9-31.5c72.8,2.5,133.1,47.1,197.9,74.5c63.6,26.8,133.3,30.9,198.9,8.6c2.7-0.9,1.6-5.3-1.2-4.3
			c-68.4,23.3-139.6,17-205-12.3c-59.1-26.5-114.7-64.6-181-70.3c-29.2-2.5-58.8,2.1-84.4,16.8c-23.9,13.8-43.1,34-63.8,52.1
			c-23.3,20.3-48.7,36.2-80.2,38.6c-29.7,2.3-59.2-4.5-88.5-8.8c-25.3-3.8-51.9-6.6-76.8,0.9c-22.7,6.8-40.2,22.1-54.2,40.7
			c-12.3,16.4-22,34.7-33.3,51.8c-19.6-30.8-41.7-61.8-83.7-53.1c-4.6,0.9-9.1,2.3-13.4,4.1c-17.9-6.5-38.3-4.7-55.4,3.6
			c-24.9,12.1-34.6,34.5-39.5,60.6c-3.4,17.8-7.2,34.5-14.9,51.1c-7,15-15.4,29.3-22.7,44.2c-11,22.5-18.5,46.9-14.5,72.2
			c4,24.8,19.2,41.1,42.6,49c7.3,2.5,15,4.5,22.2,7.2c1.5,1.7,2.9,3.3,4.5,4.9c6.3,6.6,13.8,12.1,22.1,16.1
			c6.3,10.5,9.2,23,12.4,34.6c3.9,14.2,10.6,31.6,22.3,42.2c-14.8,3.1-30.5,3.8-45,8.4c-12.8,4.1-22.4,11.7-30.7,22.2
			c-9.4,11.9-17.1,25.5-31,32.7c-28.6,14.9-62.6-3.6-84.5-22.2c-37.7-32-61-90.7-115.2-98.8c-56.2-8.4-95.6,48.9-149.5,53.9
			c-48.9,4.6-94.4-23.8-135.8-45.9c-37.9-20.3-80.8-43.1-125.2-35.7c-53.8,8.9-80.8,62.8-129.9,80.7c-50.5,18.4-98-17.7-138.9-42.8
			c-20-12.3-40.9-24.2-63.7-30.3c-26.3-6.9-52.1-3.3-77.2,6.7c-29,11.5-55.7,29.4-86.4,36.1c-28.2,6.2-61.7,4-80.5-20.8
			C12-1141.1,8.1-1138.9,9.8-1136.6z M1278.9-1157.3c5.6,1.9,11.6,2.8,17.5,2.7c2.8,9.6,7.7,18.5,14.4,26
			c11.5,12.5,28.8,16.4,43.7,9.3c-3.8,7.7-8.8,14.7-15,20.7c-7.7,7.3-16.6,11.3-26,13.9c-4.1-3-7.7-6.6-10.7-10.6
			c-9.8-13-12.6-28.9-17.1-44.1C1283.8-1145.5,1281.6-1151.5,1278.9-1157.3L1278.9-1157.3z M1357.5-1125.9
			c-3.3,2.2-6.9,3.8-10.8,4.8c-23.4,6.3-38.8-13.3-45.5-33.9c3.7-0.5,7.3-1.5,10.7-2.8c21.9-8.6,35-31.2,45.5-50.9
			c13.6-25.6,26.8-52.7,55.8-64c5-1.9,10.3-2.9,15.6-3c-7.7,2.2-15,5.7-21.4,10.5c-13,9.9-19.2,23.7-22.3,38.7
			c-10.2,23.3-13.2,51.5-19.1,74.2C1363.8-1143.3,1361-1134.5,1357.5-1125.9L1357.5-1125.9z M1366.7-1138.2c6.4-20,9.7-40.8,15-61.2
			c0.2-0.6,0.3-1.2,0.5-1.8c-0.1,1.9-0.2,3.8-0.3,5.7c-0.9,19.7-2.9,47.5-17.3,63.4C1365.4-1134.1,1366.1-1136.2,1366.7-1138.2
			L1366.7-1138.2z M1455.7-1256.6c-0.1-2.3-0.3-4.6-0.7-6.9c23.3,4,47.7,17.9,71.7,24.5c-16.2,6.3-25.6,19.9-28,38.9
			c-3.2,25.3,3.6,59.3-23.5,73.8c-8.8,4.7-18.5,6.6-28.5,7.4c-4.7-4.4-8.7-9.6-11.6-15.3c-14.3-28.3,4-59.6,13.6-86.3
			C1452.8-1232,1456.2-1244.2,1455.7-1256.6L1455.7-1256.6z M1571.4-1244.6c-11.1,1-22.2,0.7-33.2,2.5c-1.5,0.2-2.9,0.5-4.2,0.8
			c-16.8-18.5-39.9-31.8-63.7-36c-9.6-1.7-19.3-2.1-29-0.9c-21.1-8.2-44.4,6.9-58.7,21.4c-18.8,19.1-26.7,45.5-41.7,67.4
			c-7.8,11.4-17.5,22.3-30.6,27.4c-3.3,1.3-6.8,2.2-10.3,2.6c-1.2-4.5-2-9.1-2.3-13.7c-2.2-30.5,16.1-58.5,24.3-87
			c7.8-27.1,3.9-51.4-7.6-76.8c-3-6.5-6.4-13.2-9.7-20c4.4-0.4,8.8-0.7,13.2-1c24.9-1.6,50.2-3.6,71.6-16.9
			c5.8,12.3,12.3,23.7,20.5,32.6c15.6,16.7,38.1,27.8,60.9,19.3c17-6.3,28.3-21.5,38-36.2c1.7-0.2,3.5-0.4,5.2-0.6
			c33.1-4.6,68.6-17.5,96.9,7.9c12.8,11.3,20.2,27.5,20.6,44.5c-2.4,5.6-5.3,10.9-8.5,16.1
			C1610.9-1272.2,1592.9-1253.2,1571.4-1244.6L1571.4-1244.6z M1349.4-1365.4c-15.4,2.4-31.3,2.6-46.9,4c-9.2-19.2-17-39.5-12-60.4
			c4.6-19.1,19.7-34.3,37.6-42.1c32,12.6,43.9,51,59.1,84.4C1375.8-1372.2,1362.9-1367.4,1349.4-1365.4z M1248.3-1184.7
			c-14.9-17.5-24.3-40.2-28.2-62.3c-4.7-26.2-2.3-55.6,13.6-77.8c15.9-22.2,40.9-28.9,66.3-31.7c11.5,24.1,24.7,48,21.7,75.7
			c-3.5,32.4-23.8,60.1-28.1,92.2c-1.3,9.8-0.8,19.8,1.6,29.5c-6.8,0-13.4-1.4-19.6-4.2c-1.6-2.5-3.3-4.9-5.3-7.1
			C1264.2-1177.2,1256.5-1181.5,1248.3-1184.7L1248.3-1184.7z M1453.7-1267.7c-1.2-2.8-3.1-5.2-5.6-6.9c28.3-1.7,57.2,11.1,78,31.6
			C1502.4-1249.4,1477.7-1263.7,1453.7-1267.7L1453.7-1267.7z M1447.3-1268.5c-13.9-1.2-27.5,1.7-40.5,12.2
			c-3.5,2.9-6.8,6.1-9.6,9.6c5.5-9.8,14.1-17.9,27.9-23.1c4.9-1.8,10-3.2,15.2-4C1443-1272.6,1445.4-1270.8,1447.3-1268.5
			L1447.3-1268.5z M1257.7-1175.1c2.8,1.7,5.4,3.8,7.7,6.1c-1.1-0.8-2.2-1.6-3.3-2.4C1260.7-1172.5,1259.2-1173.8,1257.7-1175.1
			L1257.7-1175.1z M1322-1466c-13,6.7-24.2,17-30.9,29.9c-11.3,21.8-5.9,46,3.3,67.4c1.1,2.6,2.2,5.1,3.4,7.6
			c-12.3,1.3-24.5,3.5-36,8.4c-20.2,8.5-35,24.9-42.3,45.4c-13.9,38.7-3.8,86.6,21,119.7c-0.4-0.1-0.7-0.2-1.1-0.3
			c-14.6-4.6-30-8.3-40.6-20.1c-9.8-10.9-13.9-25.9-14.4-40.3c-1.1-31.7,14.8-58.8,29.1-85.9c6.9-13,13.5-26.4,17.7-40.5
			c4.9-16.3,5.7-33.5,11.2-49.6c9.4-27.7,36.3-45.2,65.5-43.8C1312.7-1467.9,1317.4-1467.2,1322-1466L1322-1466z M1422.5-1415.8
			c-1.5,2.1-2.9,4.3-4.5,6.4c-8.1,11.1-17.1,20.3-27.3,27.6c-14.2-32.3-23.7-68.3-56.8-84.3c4.8-1.6,9.7-2.7,14.7-3.3
			C1386.4-1473.5,1404.7-1444.6,1422.5-1415.8L1422.5-1415.8z M1503.1-1358.8c-17.7,25.1-38.3,45.5-70.2,28.9
			c-19.9-10.3-31.2-27.9-40.1-47.3c1-0.7,2-1.4,3-2.2c11.6-8.9,20.9-20.2,29.2-32.3c7.8,12.7,15.7,25,25.1,34.3
			C1465.1-1362.8,1483.4-1357.9,1503.1-1358.8L1503.1-1358.8z M1634.7-1315.8c-2.9-21.9-16.8-40.8-36.8-50.2
			c-26.1-12.4-54.6-2.9-81.4,1.3c-1.5,0.2-3,0.5-4.5,0.6c11.6-18.2,23.1-39,43.1-48.8c27.7-13.7,60.4,3.4,75.6,27.7
			C1643.7-1364.1,1642.8-1338.6,1634.7-1315.8L1634.7-1315.8z M1587-1247.4c16.3-10.3,30-26,39.8-41.6c1.2-2,2.4-4,3.6-6.1
			c-1.9,9.9-6.2,19.1-12.6,27C1609.9-1258.2,1599.1-1251,1587-1247.4L1587-1247.4z M1450.1-1115.9c24.1-2.7,44.8-10.7,50-41
			c4.3-25.3-4.8-62.5,23.7-76.4c2.7-1.3,5.5-2.4,8.4-3.3c14.8,17,24.1,38.2,23.8,60.3c-0.3,30.1-18.5,61.9-48.1,71.6
			C1488.7-1098.3,1466.1-1103.2,1450.1-1115.9z M1318.7-1081.4c7.2-2.2,13.9-5.7,19.8-10.4c10.4-8.3,17.5-19.5,22.7-31.6
			c30.5-23.2,22.1-66.3,28.4-100.8c4.6-11,10.8-21.2,20.1-28.7c12.8-10.2,26.2-12.8,40-11.3c0.7,2,1.2,4,1.3,6.1
			c1,14.1-3.5,28-8.5,41c-8.7,23-21.4,47.4-15.9,72.7c2.2,9.7,7.1,18.6,14,25.8c-12.6,0.5-25.5-0.2-37.4,1c-9.8,1-19.6,2.9-28.4,7.4
			c-10.8,5.6-16.7,15.1-25.1,23.5C1339.8-1076.9,1328.6-1076.5,1318.7-1081.4L1318.7-1081.4z"/>
		<path id="Path_262" class="st1" d="M135-1709.5l107.8,51c30.6,14.4,59.9,30.7,94.8,26.2c33.9-4.4,65.6-18.9,99.7-6.9
			c27.2,9.5,50.9,28.9,80.3,31.9c50.4,5.3,93.4-48.6,143.5-32c25.4,8.4,42,32.1,67.3,41c22.1,7.8,45.8,3.5,67.6-3.3
			c26.8-8.2,52.9-20.8,81.1-23.4c26.6-2.4,50.2,7.4,72.4,21c20.5,12.6,39.7,27.6,62,37.1c22.5,9.6,44.9,10.1,68.4,4.1
			c28.1-7.2,57.5-21.4,86.7-11.5c23.3,7.9,38.6,28.6,51.2,48.6c11.7,18.7,21.9,38.5,35.6,55.8c10.1,12.8,22.4,23.2,34.8,33.4
			c-24.3,5.7-37,28.5-38.8,52.6c-0.5,7.7-0.2,15.5,0.9,23.2c-3.3-3.9-7.7-6.8-12.5-8.4c-23.6-8.4-45.5,7-54.4,28.4
			c-12.6,30.3-7.5,67.8,0,98.7c9.2,37.4,25.5,72.6,42.3,107.1c13,26.7,27.1,60.1,56.2,72.8c19.3,8.4,43.9,6.5,57.7-9.9
			c2,8.5,6.3,16.2,12.4,22.5c14.3,14.9,37.8,22.2,57.4,14.5c12.8-5,21.9-15.8,33-23.4c9.4-6.4,18.4-8,29.7-5.3
			c6.5,1.6,12.7,4.1,19.4,4.8c23.7,2.2,46.1-15.5,53.5-37.4c8.4-24.4-2.5-51.7-20.6-68.7c-3.5-3.2-7.4-6-11.5-8.4
			c2.2-10.1,3.3-20.4,3.2-30.7c-0.1-19.1-5.7-41.2-20.2-53.9c4.1-5.7,8.6-11.2,13.2-16.6c1.6,0.4,3.1,0.7,4.7,0.9
			c53.8,7.5,79.1-83,135.5-54c34.5,17.7,46.6,61.8,47.4,97.6c0.8,38.3-9.8,75-18.9,111.8c-13.6,55.2-29.6,149.6,41.4,173.5
			c26.6,9,56.5,3.2,81-9.1c28.9-14.5,49.9-40.1,67.5-66.5c37.4-56,75.1-142.7,154.2-144.5c39-0.9,73,24.2,98.1,51.8
			c25.3,28.1,44,61.4,54.8,97.6c10,33.5,10.2,66.5,10.6,101c0.3,24.9,1.1,54.1,16.6,74.9c18.4,24.7,48.8,21.7,75.9,16.8
			c41.3-7.6,81.8-18.7,121.2-33.2c2.7-1,1.5-5.3-1.2-4.3c-37.4,13.7-75.8,24.5-114.9,32c-20.3,3.9-43.6,9.4-62.8-1.2
			c-13-7.2-20.5-20-24.6-33.8c-8.3-28.4-4.9-58.5-5.7-87.6c-2-67.1-31.3-133.8-80.6-179.6c-22.5-20.8-50.7-37.8-82.1-38.9
			c-30.8-1.1-59.3,13.9-81.8,33.8c-53.4,47.3-71.6,124.6-129.8,167c-25.6,18.7-61.1,29.6-92.3,20.3c-38.6-11.5-52.7-51.1-53.1-88
			c-0.8-73.8,40.3-142.4,29.1-217c-4.4-29.4-18.2-60.6-44.6-76.6c-22.7-13.8-45.8-7.3-65.6,7.9c-19.1,14.6-36.4,38.2-61.1,43.3
			c-5.2,1.2-10.6,1.2-15.9,0.2c8.8-10.7,17.4-21.6,23.1-34.5c8.3-18.8,11.3-43.2-7.2-57c-16.4-12.3-43.3-7.4-59.8-18
			c-0.9-8.8-2.8-17.4-5.5-25.8c-2.2-6.8-5.2-13.3-8.9-19.5c0.3-14.8,0.7-29.6-8.5-41.7c-12.9-17.1-35.9-14-51.9-3.4
			c-23.2,15.4-28.1,41.7-30,67.8c-1.4,19.5-2.7,44.7-12,63.8c0.6-5.6,0.3-11.2-0.9-16.6c-2.5-12.3-7.9-23.2-15-33c0-0.6,0-1.3,0-1.9
			c-0.2-25.2-17.1-42.1-42.1-39.2c-21.2-17.6-39-35.8-53.6-59.6c-11.4-18.6-21.5-38.1-35.6-54.9c-13.3-15.7-30.4-27.6-51.3-29.9
			c-28.3-3.1-54.8,10.6-81.8,16.3c-57,12.1-94.1-32.5-141.5-54.2c-21.5-9.9-43.5-12.3-66.7-7.8c-26.9,5.3-51.8,17.4-78.2,24.3
			c-28.2,7.4-53.9,5.2-78.1-12c-19.8-14.1-37.9-31.4-63.7-31.7c-23.7-0.3-45.7,11.7-66.7,21.1c-27.4,12.3-53.4,19-82.5,7.7
			c-24.1-9.4-45.8-25.6-71.8-29.9c-30.3-5.1-58.9,8.5-88.5,11.5c-36.3,3.7-69-16.8-100.6-31.8l-95.8-45.3
			C134.6-1714.6,132.4-1710.7,135-1709.5z M1331.3-1402c-9.5-11.6-21.1-21.7-32.5-31.1c14.3,0,27.7,7.4,31.2,22.7
			C1330.6-1407.7,1331.1-1404.9,1331.3-1402z M1345.1-1336.1c-5.3,6.8-12.3,11.9-20.4,14.8c4-22.2,9.6-44.3,10.9-66.8
			C1345.1-1372.2,1349.8-1354.2,1345.1-1336.1z M1306.2-1108.3c-2.3-15.3-4.3-30.8-5.5-46.5c14.7,4.3,32.2-2.8,47-7.7
			c18-5.9,34.9-6.5,45.3,12.2c6.6,11.9,10.3,25,21.6,33.4c0.8,0.6,1.5,1.1,2.3,1.6c-3,7.2-7.5,13.3-14,17.4
			c-29.7,18.7-56.7-25.9-87.5-16.3C1311.8-1112.9,1308.7-1110.9,1306.2-1108.3z M1300.3-1159.5c-1.2-15.9-1.2-31.8-0.1-47.6
			c12.1,3.3,24.8,3.9,37.1,1.9c1.8-0.3,3.6-0.6,5.4-1c15.4,14.9,37.6,20.5,58.3,14.7c3.3-0.9,6.5-2.1,9.6-3.6
			c4.2,7.3,6.6,16,8.4,24.4c3,14.3,4.6,34.7-0.5,51.1c-10.8-7.9-14.9-20.6-21.7-32.8c-14.4-25.7-38.2-18.3-61.4-10.4
			C1324.2-1159,1311.3-1155.3,1300.3-1159.5L1300.3-1159.5z M1505.4-1173.1c0.9,0.6,1.9,1.1,2.8,1.7c-5.1,20.4-15.7,39.3-32.5,50.4
			c-14.1,9.3-33.1,12-49,5.8c-1.7-0.7-3.3-1.4-4.9-2.3c0.6-1.8,1.2-3.7,1.6-5.5c5.3-22.2,2.9-49-6.4-69.9c-0.7-1.5-1.5-3.1-2.3-4.5
			c4.5-2.6,8.5-6,11.8-10.1c9.2-11.3,7.2-23.8,10.9-37c4.9-17.2,25-22.3,40.6-18.1c4.2,1.1,8.1,3,11.6,5.5
			c-7.3,10.5-13.2,21.9-15.4,34.6C1470-1197.5,1486-1184.4,1505.4-1173.1L1505.4-1173.1z M1366.7-1196.6c-7-2.3-13.5-5.9-19-10.8
			c13.4-3.1,27.3-7.1,40.6-4.4c8,1.5,15.2,6.1,19.9,12.8C1395.2-1193.1,1380.4-1192.2,1366.7-1196.6L1366.7-1196.6z M1232-1287.1
			c1.2-2.1,2.3-4,3.5-5.9c5.9-9.9,12.7-19.5,17.2-30.2c1.9-4.4,3.1-9,3.7-13.7c5.2,14,13.6,26.7,24.4,37.1
			c9.9,9.3,22.4,15.6,35,16.5c-5.7,11.4-10.2,23.5-13.4,35.9c-2.9,11.4-4.9,23-6,34.7c-8.3-2.8-16.2-6.7-23.5-11.7
			C1251.7-1238.7,1235.7-1261.7,1232-1287.1L1232-1287.1z M1316.2-1274c1.1,22.6,7.3,45.4,22,62.8c0.2,0.3,0.5,0.6,0.7,0.8
			c-10.8,1.8-21.5,2.6-32.7,0.3c-1.9-0.4-3.8-0.8-5.6-1.4C1302.6-1233,1307.3-1254.1,1316.2-1274L1316.2-1274z M1295.7-1161.9
			c-1.3-0.9-2.6-1.9-3.8-2.9c-9.9-9.3-12.4-24.4-16-36.9c-2-6.8-4.1-13.9-7.5-20.3c8.4,5.9,17.7,10.5,27.5,13.6
			C1294.7-1192.9,1294.7-1177.4,1295.7-1161.9z M1248.3-1240.7c-9.3-4.7-19.1-8.9-22.3-19.1c-2.2-6.9-0.3-14.1,2.7-20.7
			C1231.9-1265.9,1238.6-1252.2,1248.3-1240.7L1248.3-1240.7z M1244.8-1333.1c2.3-2.1,4.9-3.6,7.8-4.6c-1.4,15-12.8,29.8-21.3,43.4
			c0-0.1,0-0.2,0-0.3C1230.7-1308.1,1234.2-1323.8,1244.8-1333.1L1244.8-1333.1z M1260.3-1338.5c9,0.9,17.6,7.7,25.4,13.5
			c10.9,8,22.3,11.4,33.4,9.6c-1.2,7.8-2.2,15.7-2.7,23.6c-0.1,1.4-0.2,2.9-0.2,4.3c-9.2-0.7-17.9-4-25.3-9.5
			C1277.2-1307,1266.7-1321.9,1260.3-1338.5L1260.3-1338.5z M1323.9-1316.6c6.4-2.1,12.3-5.5,17.2-10.1c0.4-0.4,0.8-0.8,1.2-1.1
			c-0.7,1.7-1.6,3.5-2.5,5.2c-5.5,10.5-12.8,19.9-18.9,30C1321.5-1300.7,1322.5-1308.7,1323.9-1316.6L1323.9-1316.6z M1449.5-1439.6
			c-7.3-9.3-16.9-16.2-29.5-17.2c-23.9-1.9-39.7,17-47,37.6c-9.9,27.5-5.3,56.7-10.9,84.9c-3,14.7-8.5,30.1-21.1,39.3
			c-5.2,3.9-11.4,6.4-17.8,7.2c9.2-16.3,21.1-31,26.2-47.9c12.4-16.1,16.1-36.2,17.6-56.8c2.2-30.4,1.9-65.7,31.3-83.3
			c12.1-7.3,28.8-10.5,40.2-0.1c9.7,8.8,10.8,22.6,11,34.9C1449.5-1440.6,1449.5-1440.1,1449.5-1439.6L1449.5-1439.6z
			 M1463.6-1391.8c-3.3-3.4-5.7-7.6-7-12.1c-1.8-6.2-2.7-12.5-2.6-18.9c3,6,5.4,12.3,7.1,18.8
			C1462.1-1400,1462.9-1395.9,1463.6-1391.8L1463.6-1391.8z M1507.8-1279.6c-20-7.1-30.3-31.9-34.2-53c-3-16.5-3-33.1-4.6-49.6
			c20.2,10.5,49.4,2.1,63.6,23.2c15.8,23.6-6,57.6-21.4,75.4C1510.1-1282.2,1508.9-1280.9,1507.8-1279.6L1507.8-1279.6z
			 M1492.4-1260.8c-4-2.8-8.4-4.8-13.1-6.1c-22.8-6.1-44.6,5.3-47.6,29.3c-2,15.8-5.8,28.3-19.3,36.4
			c-13.4-18.3-36.5-16.8-58.5-12.1c-3.4,0.7-6.7,1.4-10.1,2.1c-17.1-18.1-23.3-47.1-23.3-71c0-0.2,0-0.5,0-0.7
			c0-0.1,0.1-0.2,0.1-0.3c9.4-0.4,18.4-3.9,25.5-10.1c19.7-16.6,22.6-46.4,23.7-70.5c1.3-27.7,1.6-67.3,28.9-83.7
			c21.9-13.1,39.6-0.9,50.9,16.7c-0.1,16.5,0.4,34.3,14.2,45.1c0.3,0.2,0.5,0.4,0.8,0.6c2.5,21.6,1.5,43.5,7.2,64.8
			c5,18.4,15,37.2,33,44.1C1500.5-1271.1,1496.3-1266.1,1492.4-1260.8L1492.4-1260.8z M1509.2-1175.6c-8-4.6-16.2-8.9-22.2-15.6
			c-13-14.4-9.4-33.4-1.6-49.4c2.3-4.7,5-9.3,8-13.6c9,8,14.4,20.1,16.6,32C1512.8-1206.7,1512.5-1190.9,1509.2-1175.6
			L1509.2-1175.6z M1251.4-1349.5c0.7,2.3,1.2,4.6,1.3,7c-1.3,0.4-2.5,0.8-3.8,1.4c-19.3,8.7-23.9,34.2-21.5,53.4c-1.1,2-2.1,4-3,6
			c-3.3,7.6-5.3,16-2.5,24.1c4.4,12.7,17.2,16.3,27.7,22.4c25.4,14.8,19.3,48.4,35.6,69.6c2.8,3.8,6.5,6.9,10.8,9.1
			c1.3,17.9,3.7,35.7,6.4,53.4c-4.8,8.5-4.6,19.5,4.9,25.2c1.8,1.1,3.6-0.7,3.3-2.5c-1.2-7.3-2.4-14.6-3.6-22.1
			c0.8-1.2,1.7-2.3,2.8-3.3c9.6-9,24.7-4.3,35.1,0.5c12.6,5.8,24.2,14.8,38.4,16.3c18,1.9,30.5-9.1,37-24c19.3,10.4,45.1,6.2,62-7.1
			c15.2-12,24.7-29.7,29.6-48.7c22.7,16.2,39.1,44.8,28.3,72.9c-5.7,14.8-18.7,27.2-34,31.3c-16.4,4.4-29.5-5.6-45.4-5.1
			c-24.7,0.7-37.1,28.6-60.7,32.7c-26.2,4.6-53.5-14.7-57.1-41c-0.3-2.1-3.2-2-4.1-0.5c-9.8,15.4-28.7,19.4-45.6,15.5
			c-17.9-4.1-31.3-17.5-41.2-32.2c-10-14.8-17.4-31.3-25.2-47.4c-9.5-19.6-18.6-39.3-26.3-59.7c-13.9-36.8-24.8-78.6-18.2-118.1
			c2.9-17.1,10.7-36.4,27.8-43.4C1224.7-1369.9,1246-1366.6,1251.4-1349.5z M1303.9-1093.8c0.4,2.3,0.7,4.6,1.1,6.9
			C1304.1-1089,1303.7-1091.4,1303.9-1093.8L1303.9-1093.8z M1292.5-1432.7c8.8,7.2,17.6,14.4,25.6,22.5c5,5,9.5,10.4,13.6,16.1
			c0,16.1-4.2,33-7.1,48c-1.7,8.7-3.4,17.4-4.8,26.2c-24.3,6-39.6-24.2-61.2-23.6c-5.8-17.5-7-36.5-2.8-53.3
			c4.4-17.4,16.1-31.6,34.1-35.5C1290.7-1432.4,1291.6-1432.6,1292.5-1432.7L1292.5-1432.7z"/>
		<path id="Path_263" class="st0" d="M94-970c12.4,3.9,25.6,4.2,38.2,1.1c60.5-14.6,110.6-87.9,176.7-47.3
			c28.4,17.4,51.6,46.3,86,52.1c31.3,5.2,60.8-10.1,87.5-24.5c30.4-16.4,63.7-36.9,99.8-30.7c42.6,7.3,66.2,43.4,90.8,74.8
			c10.6,13.5,24.4,23.4,42.3,22c17-1.3,32.5-11.3,44.9-22.3c15.7-13.8,27.7-31.5,44.6-44c17.7-13.1,38.9-16.6,59.2-7.4
			c36.8,16.7,56.1,56,90,76.9c14,8.7,30.8,14.9,47.4,12c17.2-3,29.4-15.4,38.2-29.8c23-37.5,38.5-80.7,52.6-122.2
			c14.9-43.9,27.4-88.6,41.9-132.6c3.7-11.3,7.5-22.5,11.5-33.7c3.5-9.8,7.4-20.1,15.6-27c16.1-13.5,40.2-7,55.3,4.6
			c17.3,13.3,24.9,35.2,30.6,55.4c2.5,8.8,4.4,18.4,7,27.7c-1.1,10-4.3,19.6-9.4,28.2c-1.3,2.2,1.7,4.5,3.5,2.7
			c4.2-4.1,9.1-7.6,14.4-10.3c0.9,1.5,1.8,2.9,2.8,4.2c15.7,21.4,38.3,13.1,52-3.3c18.3,10.8,28.9,31.7,28,52.9c0,1.2,1,2.2,2.2,2.2
			c17.9,1,31.6-13,44.6-23.4c7.2-5.8,17-14.1,27.1-11.7c13.4,3.1,15.4,20,23.8,28.7c14,14.6,36.6,7.1,49.5-4.8
			c20.4-18.8,18.9-49.8,26.2-74.7c3.5-12.1,8.6-22.3,23.1-20.4c6.4,0.8,12.1,3,18.7,3c11.9,0.1,23.6-3.7,33.8-9.7
			c9.7-5.7,18.2-13.3,24.9-22.3c34.4,26.4,57,67.8,68.3,108.9c9.2,33.6,12.3,68.6,14,103.3c1.6,33,0.3,67,5.4,99.7
			c3.7,23.8,18.5,39.8,42.7,42.5c25.7,2.9,50.8-8,72.6-20.4c50.5-28.7,105.6-83.5,169.2-64.4c29.6,8.9,48.9,35.4,57.2,64.1
			c9.9,34.1,4.8,70.5,0,105.1c-0.4,2.8,3.9,4.1,4.3,1.2c4.2-30.2,8.4-61,3.6-91.5c-3.8-23.7-13.9-47.3-31.4-64.1
			c-18.4-17.7-43.4-24.7-68.5-22.3c-58.3,5.6-99.4,50.3-149.7,74.8c-23.5,11.5-57.8,22.2-80.8,3.8c-14-11.1-15.4-29.7-16.5-46.2
			c-1.2-16.8-1.8-33.7-2.4-50.5c-2.2-59.4-4.4-121-30-175.8c-12.8-27.4-31.5-53.2-55.5-71.7c7.5-11.1,13.3-23.2,17-36.1
			c4.5-14.5,7.1-29.6,9.4-44.6c1.5-9.7,4.6-22-1.6-30.8c-7.2-10.1-21.8-7.1-30.3-15.4c-7.5-7.3-7.6-19-7.2-28.7
			c0.6-17.8,5.7-38.6-3.2-55.1c-11.3-20.9-36.7-16.4-56.5-17.3c-1.6-0.1-3.1-0.2-4.5-0.4c-8.5-16.8-21.1-31.2-36.6-42
			c-1.1-0.6-2.5-0.2-3.1,0.8c-0.1,0.2-0.2,0.3-0.2,0.5c-1.1,4.3-2.8,8.4-5.1,12.2c-7-5.3-14.7-9.7-22.8-13
			c-25.2-10.3-53.5-10.1-78.5,0.5c-4.1-6.2-8.9-12-14.3-17.3c-17.3-16.2-43.3-24.2-66.6-18.5c-17.6,4.3-30.3,18.3-27.7,36.9
			c4.9,34.1,60.7,81.1,14.7,109.1c-18.4,11.2-41.4,13.4-57.9,28.2c-16.4,14.7-21.1,37.1-20.1,58.3c1.2,25.5,10.2,48.7,17.9,72.7
			c4.7,14.9,9.1,30.7,9.9,46.4c-2-8.1-3.8-16.3-6.3-23.9c-5.2-16.3-12.6-33.1-25.7-44.5c-20.7-18-55.5-23.7-72.4,2.3
			c-10.7,16.6-15.5,38.3-21.5,56.9c-7,21.5-13.6,43.1-20.2,64.7c-13.5,44-27.3,88.1-45.4,130.4c-15.1,35.3-35.9,95.5-85.3,81.2
			c-39.7-11.4-60.6-50.3-91.5-74.3c-12.7-9.9-27.5-17.8-43.9-18.5c-15.8-0.6-30.3,5.9-42.5,15.5c-15.1,11.9-26.4,27.5-40.4,40.5
			c-15.6,14.4-38.6,29-60.6,21c-19.2-7-29.1-28.8-41.2-43.8c-11.4-14.2-24.5-27.4-40-37.1c-29-18.2-61-17.9-92-5.3
			c-30.3,12.3-57.1,32.5-88.4,42.7c-16.2,5.3-33.3,7-49.9,2.2c-17.2-5-31.7-16.1-45.5-27c-23.9-18.8-48.9-39-81.3-35.6
			c-29.3,3.1-54.7,20.9-79.1,35.9c-25.8,15.8-55.1,32.6-86.2,22.9C92.5-975.2,91.3-970.9,94-970z M1393.5-1493.9
			c-18.3,9-33.4,23.3-43.4,41.1c-6.2,10.9-10.3,22.8-12.3,35.1c-4.9,17.1-6.2,34.9-3.9,52.5c2.7,18.6,9.1,36.5,18.9,52.6
			c-4.4,2.8-8.5,5.9-12.4,9.4c-10.3,9.4-18.4,21.5-22.3,34.9c-5.1,17.5-1.7,35.6,2,52.9c4.6,21.7,10.3,44.6-2.3,64.8
			c-0.3,0.6-0.7,1.1-1.1,1.6c-0.9-0.5-1.8-0.9-2.8-1.3c-15.8-7-33.7-6.4-49.2,0.2c-2.2-4.5-4.1-9.2-5.6-14
			c6.2-47.2-29.5-97.3-27.9-144.8c0.4-13,3.4-26.1,10.9-36.9c7.7-11.1,19.4-17.4,31.6-22.3c17.2-6.9,39.5-11.9,49.2-29.6
			c20.7-37.7-30.8-68.2-28.7-104.4c2-34.7,52.1-29.9,73.1-18.3C1378.8-1514,1386.4-1504.1,1393.5-1493.9z M1457.8-1144
			c-54.1,10.9-108.9-42.3-92.1-96.5c4.1-13.2,11.1-25,19.3-36c7.3,5.5,15.3,10.2,23.7,13.8c37.6,16.1,78.7,10.1,118.7,10.8
			C1534.1-1205.8,1505.2-1153.6,1457.8-1144z M1387.7-1280.1c8.2-10.6,17.5-20.5,26.1-30.3c2.1-2.3,4.1-4.7,6.2-7.1
			c15.5,6.1,28.6,18.2,45.9,18.7c11.3,0.3,22.6-3.5,32.8-9.1c12,12.2,20.9,27.1,26,43.5c0.8,2.6,1.4,5.3,2,8
			c-44.6-0.6-90.7,6.5-130-17.6C1393.5-1275.9,1390.5-1277.9,1387.7-1280.1L1387.7-1280.1z M1544.7-1445.2
			c15,37.1,7.8,79.5-18.6,109.5c-7.6,8.8-16.6,16.3-26.5,22.3c-16.2-15.7-36.1-27-57.9-32.9c6.9-10.7,12.3-22.3,16-34.5
			c7-24.3,4.8-50.3-10.8-70.9c-0.3-0.4-0.6-0.8-1-1.2c20.6,1.8,42.4-7.6,54.8-24c4,3.3,7.9,6.9,11.8,10.6
			c8.4,7.8,17.1,13.6,28.6,15.3c0.3,0,0.6,0.1,1,0.1C1543-1449,1543.9-1447.1,1544.7-1445.2z M1439-1453.9c3.6,3.8,6.8,8.1,9.4,12.7
			c15.7,27.6,7.9,60.6-7,86.8c-1.4,2.4-2.8,4.7-4.2,7c-5-1.2-10.1-2-15.3-2.5c-29.3-3-66.4,2.6-77.7-32.6
			c-3.4-11.2-4.2-23.1-2.1-34.7c5.8-18.6,16.5-35.9,32.6-46.5c10.5-7.2,23.6-9.7,36.1-6.9c3.1,3.4,6.6,6.4,10.4,9.1
			C1426.5-1457.9,1432.6-1455.3,1439-1453.9L1439-1453.9z M1424.8-1465.1c1.4,0.8,2.7,1.6,4,2.5
			C1427.4-1463.4,1426.1-1464.2,1424.8-1465.1L1424.8-1465.1z M1391.2-1475.6c-14.9,3.1-26.8,11.4-35.8,22.5
			c2.3-3.9,4.9-7.6,7.7-11.1c8.8-11,20-20,32.7-26.2c3.2,4.8,6.5,9.6,10,14.1C1400.9-1476.9,1396-1476.7,1391.2-1475.6
			L1391.2-1475.6z M1439.1-1342.3c12,3.1,23.4,7.9,34,14.2c8,4.8,15.5,10.5,22.3,17c-5.9,3.1-12.2,5.4-18.7,6.8
			c-21.1,4.5-35.7-9.5-53.6-16.9C1428.8-1327.9,1434.1-1335,1439.1-1342.3L1439.1-1342.3z M1384.3-1282.8
			c-9.9-8.1-18.5-17.7-25.5-28.4c17-9.6,37.4-13.4,56.2-8c0.1,0,0.3,0.1,0.4,0.1c-9.1,10.6-18.7,20.8-27.4,31.6
			C1386.7-1285.9,1385.5-1284.4,1384.3-1282.8z M1356.4-1314.9c-14.1-23.2-21.3-50.9-19.1-77.7c0.5,3.8,1.4,7.6,2.5,11.3
			c7.8,24.8,29.6,33,53.6,34.5c13.8,0.9,27.5,0.6,41,3.5c-4.9,7.1-10.2,14-15.9,20.6h-0.1
			C1397.8-1329.6,1375.1-1325.5,1356.4-1314.9z M1497.3-1479.7c-11.5,15.5-32,24.1-51.5,22.2c-1.6-0.2-3.1-0.4-4.5-0.7
			c-7.4-7.8-16.7-13.5-26.9-16.6c-4.8-5.5-9-11.8-13.3-18.1c10.8-4.5,22.4-6.9,34.2-7.2c14.8-0.3,29.4,2.6,42.9,8.5
			C1485-1488.4,1491.4-1484.4,1497.3-1479.7L1497.3-1479.7z M1539.4-1456.3c-12.6-3.3-21.4-11.4-31.7-21c-1.4-1.3-2.8-2.5-4.2-3.7
			c2.1-3.4,3.8-6.9,5-10.7C1521.2-1482.2,1531.8-1470.1,1539.4-1456.3L1539.4-1456.3z M1618.3-1229.5c-13-9.5-27.6-16.6-43.1-21
			c-14.3-4-29-5.4-44-5.8c-1-5.4-2.5-10.7-4.4-15.8c-5.4-14.2-13.6-27.1-24.1-38.1c3.8-2.3,7.5-4.9,11.1-7.7
			c27.5-21.4,44.7-55.9,43.4-91c-0.6-14.3-3.9-28.4-9.9-41.5c10.8,0.7,21.8-0.6,32.5,1c28.2,4.2,27.4,31.5,25.8,53.8
			c-1.1,15-4,35.3,9.1,46.3c10.1,8.5,28,4.8,30.9,20.6c1.5,8.1-1,17-2.3,25c-1.2,7.2-2.4,14.5-4,21.6
			C1635.2-1263.5,1628.9-1244.9,1618.3-1229.5z M1522.5-1192.6c8.8-18.4,12.1-39,9.4-59.3c20.2,0.6,40.1,3.3,59,11.6
			c8.7,3.9,17,8.6,24.8,14.2c-6.4,8.5-14.4,15.7-23.6,21.1c-12.9,7.5-27.6,10.7-42.3,7.8C1539.2-1199.2,1530.2-1201.7,1522.5-1192.6
			L1522.5-1192.6z M1320.2-1146.9c3.1-4.4,5.6-9.2,7.3-14.4c6.1-19-0.1-39.8-4-58.7c-4.2-20.4-6.3-40.8,3.9-59.8
			c6.5-11.9,16-21.9,27.5-29.1c7.3,11.2,16.2,21.3,26.6,29.7c-12.1,16.3-21.8,34.3-23.6,54.9c-1.8,20.7,6.4,40.7,20.2,55.9
			c29.9,33.1,80,40.2,115.6,12.2c8.7-6.9,16.2-15.2,22.2-24.6c-3,8.1-4.4,17.1-5.8,25c-2.8,14.8-4.8,30.9-12.8,44
			c-6.9,11.2-20.4,20.8-34,20.9c-16.9,0.1-20.8-14.4-28.7-26c-9.5-14-24-13.1-36.9-4.4c-14.8,9.9-28.7,28.3-47.8,28.7
			C1350.1-1114.4,1338.8-1135.6,1320.2-1146.9L1320.2-1146.9z M1266.8-1146.2c14.3-6,30.7-6.5,45.3,0c0.6,0.3,1.2,0.5,1.7,0.8
			C1300.5-1129.6,1279.1-1125.8,1266.8-1146.2L1266.8-1146.2z M1257.3-1155.2c0.9,2.4,2,4.8,3.1,7.1c-2.4,1.2-4.7,2.6-6.9,4.1
			C1255.1-1147.7,1256.4-1151.4,1257.3-1155.2L1257.3-1155.2z"/>
		<path id="Path_264" class="st3" d="M1220.8-1258.9c6.6,6.6,13.6,12.9,20.7,19.2c-12,5.3-22.9,12.8-31.1,23.1
			c-11.3,14.3-16.6,34.6-10.4,52.1c6.5,18.2,23.9,27.6,39.3,37.3c15,9.5,34.4,26.4,27.6,46.4c-0.7,2,1.7,3.3,3.3,2.5
			c10.9-5.4,22.7-4.7,33.7-0.8c9.5,17.3,27.1,28.8,46.4,34.1c9.1,8.9,18.4,17.7,29.5,24.2c14.7,8.8,32.4,11.1,48.9,6.5
			c31.1-8.7,57.8-39.2,54-72.7c-0.2-1.6-1.8-3-3.4-1.9c-16.6,10.9-33.3,21.7-51.4,30c-17.3,7.9-36.2,13.6-55.4,12.9
			c-6.6-0.2-13.2-1.2-19.7-2.8c-9.3-9.1-18.5-18.4-29.5-25.5c-5.1-3.3-10.4-6-16.1-8.1c-3-5.9-5-12.3-5.8-18.8
			c-1.3-10.4-0.2-21,2.1-31.2c2.1-9.8,5.1-19.3,9.2-28.4c3.3-7.1,8.3-15,16.6-16.3c10-1.6,20.1,6.7,27.1,13
			c14.4,12.9,24.7,29.7,39.4,42.3c13.7,11.7,31.9,20.9,50.2,15.8c15.6-4.3,26.3-17.6,33.1-31.7c6.9-14.2,10.9-29.6,11.6-45.4
			c0.5-13.8-2-29.8-12.6-39.7c-2.2-2.1-4.7-3.8-7.5-5.2c17-7.3,33.4-16,49-26c14.4-9.2,32.2-21.5,50-15.5c1.2,0.4,2.3,0.8,3.4,1.4
			c-2.6,2.5-5.2,4.9-7.6,7.4c-6.2,6.1-11.7,12.6-15,20.8c-2.9,7.3-4.3,15.5-2.6,23.2c1.4,7.5,6.5,13.7,13.5,16.6
			c8.4,3.4,17.5,0.9,24.8-3.8c0.1-0.1,0.2-0.1,0.3-0.2c0.7,0.9,2.1,1.1,3,0.3c0.1-0.1,0.1-0.1,0.2-0.2c2.2-2.2,4.1-4.6,5.6-7.3
			c4.1-4.1,7.7-8.6,10.8-13.5c5.4-8.6,10.3-17.5,14.5-26.7c25.2-55.4,29.6-118.1,12.4-176.5c-2.9-9.6-6.4-19.1-10.4-28.3
			c-3.9-8.9-8.2-17.9-14.1-25.7c-5.2-6.9-12.2-13.2-21-14.8c-11-1.9-20.9,3.7-30,9.1c-21.2,12.5-42.4,25-63.6,37.4
			c-0.4-0.5-0.8-1.1-1.1-1.7c0-0.7,0.1-1.5,0.1-2.2c0.4-13.9-1.4-28.2-6.1-41.3c-0.8-5.9-2.4-11.6-5.8-16.7
			c-2.1-3.1-4.8-5.7-7.9-7.7c-8.8-10.6-20.8-18.1-34.2-21.5c-16.2-4-34.3-1.7-47.5,9.1c-15.9,13.2-18.7,35.8-33.9,49.5
			c-7.4,6.6-17.7,10.8-27.1,6c-8.2-4.1-13.7-11.9-21.7-16.4c-16.2-9.2-33.7,1-43.2,14.8c-5.3,7.8-8.4,16.9-8.9,26.4
			c-0.8,11.7,1.2,23.3,3,34.7c0.7,4.1,1.4,8.3,2.1,12.5c-3,1.7-5.9,3.7-8.5,5.9c-8.6,7.3-13.9,17.7-14.7,29c-3.3-0.6-6.7-0.9-10-0.9
			c-3.8,0.2-7.6,1-11.2,2.4c-6.9,3-12.9,7.7-17.4,13.8c-9.7,12.7-13.7,30.1-10.1,45.7C1194.1-1289.2,1206.9-1272.9,1220.8-1258.9z
			 M1274.5-1342.4c-7,1.7-14.3,1.4-20.6-2.3c-6.2-3.6-9.8-10-10.8-17c-0.1-0.9-0.2-1.8-0.3-2.8c4.1,0.6,8.3,0.8,12.3-0.6
			c8.7-3,11.7-12,12.2-20.5c0.2-5.6-0.1-11.2-0.8-16.7c5.7-2.9,11.8-5.1,18-6.5c-2.2,13.1,1.4,26.7,5.8,39.4
			c-1.5,7.4-2.4,14.8-2.6,22.3C1283.4-1345.1,1279-1343.6,1274.5-1342.4L1274.5-1342.4z M1300.7-1282.6c-0.6-9.6-3.1-18.8-5.1-28.1
			c-2.1-9.8-3.3-19.8-3.6-29.9c0-1.2,0-2.3,0-3.5c2.2-1.1,4.5-2.2,6.7-3.3c5.9,13.7,12.9,26.9,21,39.5c2.5,4,5.2,7.9,7.9,11.8
			c1.7,5.6,3.9,11,6.6,16.2c9.3,17.3,23.3,31.7,40.5,41.2c-5.8,4.9-9.9,11.3-11.8,18.6c-11.4,6.8-23.8,11.8-36.9,13.4
			c-20.9,2.6-40.2-4.8-57.1-16.6c-6.5-4.7-12.8-9.6-18.9-15c6.7-2.4,13.6-4.1,20.6-5.9c9.2-2.3,18.4-5.6,24.2-13.5
			C1300.1-1264.8,1301.2-1274,1300.7-1282.6L1300.7-1282.6z M1386.3-1237.9c-0.9-0.4-1.9-0.8-2.8-1.3c2.3-1.2,4.7-2.1,7.1-2.9
			C1389.2-1240.7,1387.7-1239.3,1386.3-1237.9L1386.3-1237.9z M1533.6-1310.8c-8.8,8-20.8,12-32.7,12.4c-0.1-0.7-0.2-1.5-0.4-2.2
			c-2.5-13.3-11.3-24.5-23.7-30c-1.5-0.7-3.1-1.3-4.6-1.8c13.4-11.8,28.6-21.1,46.6-25.6c9.6-2.4,19.9-3.2,29.6-1.3
			c0.2,0,0.4,0.1,0.5,0.1c0.3,2.6,0.5,5.3,0.6,8C1549.7-1336.4,1544.8-1320.9,1533.6-1310.8L1533.6-1310.8z M1485.6-1431.1
			c-17.5-4.3-36.3-4.7-53.6-2.3c-11.8,1.5-23.4,4.3-34.6,8.3c-5.7-4.1-12.2-7.1-19-8.6c-15.3-3.6-31.7-1.1-45.8,5.5
			c-5.7,2.7-11,6.1-15.8,10.3c-4.5,0.5-9,1-13.4,1.5c-4.2,0.5-8.4,1.1-12.7,1.9c1.5-3.5,3.8-6.5,6.9-8.8c6.9-5.2,16-6.1,24.3-7.3
			c8.5-1.2,16.9-3.4,24.9-6.4c15.9-6.1,30.2-15.5,42.1-27.6c12.2-12.6,20.6-28.2,33-40.5c10.4-10.3,25.4-17.8,40.4-14.5
			c2.8,0.6,5.5,1.7,7.9,3.2c5.3,6.7,9.5,14.3,12.2,22.5c0.3,2.4,0.4,4.8,0.5,7.1c0.5,12-0.5,25.2,5.4,35.9c-0.1,2.8-0.3,5.5-0.7,8.3
			C1487-1439,1486.4-1435,1485.6-1431.1L1485.6-1431.1z M1289.1-1409.8c7.4-1.4,14.9-2.5,22.4-3.1c-9.1,9.8-15.4,21.9-19.2,35
			c-0.3-0.9-0.5-1.8-0.8-2.6C1289-1389.3,1286.9-1400.4,1289.1-1409.8L1289.1-1409.8z M1468.4-1328.8c8,2,15.2,6.5,20.5,12.8
			c4,5.1,6.6,11.2,7.5,17.6c-11.8-0.5-23.8-4.6-32.1-13.3c-2.2-2.2-4-4.8-5.4-7.6C1462-1322.5,1465.1-1325.7,1468.4-1328.8
			L1468.4-1328.8z M1456.9-1323.8c-0.7-2.1-1.3-4.2-1.8-6.4c2.6-0.1,5.2,0,7.8,0.4C1460.9-1327.9,1458.9-1325.9,1456.9-1323.8
			L1456.9-1323.8z M1431.7-1383.3c5.8,6.4,10.3,13.9,13.3,22c3.1,8.8,3.4,18,4.7,27.1c-4.1,0.6-8.2,1.7-12,3.3
			c-6.2,2.6-11.7,6.7-16,11.9c-4.4,5.4-7.6,11.6-10.5,17.9c-5.5,11.7-10.4,26.2-22.7,32.5c-1.5,0.8-3.1,1.4-4.8,1.9
			c0.1-1.2,0.2-2.4,0.3-3.6c0.8-11.3,1.5-22.7,0.5-34.1c-1.6-17.7-8-35.3-21.4-47.6c-5.9-5.6-13.1-9.5-21.1-11.2
			c-2.2-0.4-4.4-0.7-6.6-0.7c1.7-4,3.6-7.9,5.7-11.6c9-15.6,22.1-27.8,37.8-36.4c2.4,0.5,4.8,1.1,7.2,1.7
			c9.4,2.5,18.4,6.3,26.6,11.4c3.9,5.7,8.4,10.9,14.8,13.9c1.2,0.6,2.5,1.1,3.7,1.5C1431.5-1383.5,1431.6-1383.4,1431.7-1383.3
			L1431.7-1383.3z M1407.5-1407.1c-7.1-3.5-14.6-6.3-22.4-8.2c3.7-1.8,7.4-3.4,11.3-4.8C1400.7-1416.3,1404.5-1411.9,1407.5-1407.1
			L1407.5-1407.1z M1378.4-1416.8c-3.5-0.7-7-1.2-10.6-1.7c-14.2-1.7-28.5-1.5-42.8-0.3c6-4.2,12.6-7.3,19.6-9.4
			c15.2-4.4,32.5-4,46.3,4.2c0.4,0.2,0.8,0.5,1.2,0.7C1387.5-1421.3,1382.9-1419.2,1378.4-1416.8L1378.4-1416.8z M1340.2-1278.3
			c-1.1-1.8-2.1-3.7-3-5.6c5.4,6.2,11.7,11.6,18.7,16c6.8,4.1,14.8,7,22.8,6.5c-0.4,6.5-0.8,13-0.6,19.5c-0.5-0.3-1-0.6-1.5-0.9
			C1361.6-1251.3,1349-1263.5,1340.2-1278.3L1340.2-1278.3z M1331.6-1298.3c-2.7-9.3-4-18.9-3.8-28.6c0.2-11.2,2.2-22.2,6-32.7
			c0.2,0,0.4,0,0.7,0c8.2,0.2,16.1,3,22.5,8.2c14.2,11.1,21.4,28.9,23,46.4c1.2,13.1,0,26-1,39.1c-13.1,1-26-8.2-35-17.2
			C1339.5-1287.9,1335.4-1292.9,1331.6-1298.3L1331.6-1298.3z M1324.7-1308.4c-4.2-6.5-8.2-13.1-11.9-19.9
			c-3.7-6.9-7.1-13.9-10.2-21.2c3-1.5,6-3,9-4.3c5.5-2.6,11.3-4.4,17.3-5.4C1323.4-1342.9,1322-1325.4,1324.7-1308.4z
			 M1300.9-1353.6c-2.2-5.4-4.3-11-6.2-16.6c2-9.4,5.5-18.4,10.3-26.7c3.6-6.3,8.2-11.9,13.6-16.8l1.4-0.1
			c17.4-1.6,35.1-2.2,52.4,0.5c-14.1,8.7-26.2,20.2-34.8,35c-2.7,4.6-5,9.4-6.9,14.4c-4.1,0.4-8.1,1.2-11.9,2.5
			C1312.6-1359.2,1306.7-1356.6,1300.9-1353.6L1300.9-1353.6z M1484.5-1426.7c-3.6,13.8-10.4,27.1-22.7,34.6
			c-7.6,4.6-17,6.9-25.7,5.1c-0.8-0.2-1.5-0.3-2.2-0.6c-4.1-4.4-8.6-8.4-13.5-11.8c-1.4-1-2.9-2-4.3-2.9c-0.3-0.5-0.7-1-1-1.5
			c-4.2-6.4-8.1-12.9-13.7-18c11.3-3.8,22.9-6.3,34.7-7.6C1452.2-1431.2,1468.7-1430.7,1484.5-1426.7L1484.5-1426.7z M1488.9-1425.5
			c0.8,0.2,1.6,0.5,2.4,0.7c16.7,5.3,32.3,14.9,42.8,29.1c7,9.4,11.9,20.4,14.2,31.9c-29-5.1-59.5,10.8-81.2,30.1
			c-4.2-0.9-8.5-1.2-12.7-1c-1.3-8.4-1.7-17.3-4.2-25.4c-2.5-8-6.5-15.5-11.7-22c14,1.4,28.5-5.6,37.3-16.5
			C1482.2-1406.4,1486.3-1415.7,1488.9-1425.5L1488.9-1425.5z M1494.5-1276.8c-2.1,6.4-5.8,12.3-10.7,17c-5.3,5-12,8.1-19.1,9.8
			c-15.1,3.6-31,1.4-46.3,0.9c-5.1-0.2-10.2-0.1-15.3,0.2c7.5-8.5,14.4-17.6,21.1-26.7c9.9-13.3,20.2-27.4,31.6-40.2
			c4.1,6.9,10.1,12.5,17.3,16.1c7.4,3.6,15.5,5.7,23.8,5.9C1497.1-1288,1496.3-1282.3,1494.5-1276.8L1494.5-1276.8z M1396.4-1248.1
			c-4.8,0.8-9.4,2.2-13.8,4.3c0-6.1,0.4-12.2,0.9-18.3c5.6-1.3,10.7-4.1,14.9-8.1c10.2-9.8,14.1-24.4,20.7-36.5
			c3.3-6.1,7.4-12,13.1-16c5.4-3.8,11.7-6.2,18.3-7.1c0.7,3.3,1.7,6.5,3.1,9.6C1432.9-1297.5,1417.1-1270.6,1396.4-1248.1
			L1396.4-1248.1z M1387.2-1232.7c9.4,3.8,19.4,6.3,29.6,7.2c9.6,0.8,18.9-0.4,28.5-1.3c3.7-0.4,7.4-0.5,11.2-0.3
			c-12.4,4.8-25.1,8.8-38,12c-9,2.3-20.5,5.9-28.1-1.5c-3.5-3.5-5.5-8.2-6.5-13.1C1385-1230.7,1386.1-1231.7,1387.2-1232.7
			L1387.2-1232.7z M1378.9-1231.5c-3.2,2.7-6.6,5.2-10.2,7.6c1.1-2.5,2.5-4.8,4.2-6.9c1.6-1.9,3.4-3.7,5.4-5.2
			C1378.5-1234.5,1378.7-1233,1378.9-1231.5L1378.9-1231.5z M1292.1-1349.2c0.2-4,0.5-8,1.1-12c0.2,0.5,0.4,1.1,0.6,1.6
			c1,2.7,2.1,5.3,3.1,8C1295.3-1350.7,1293.7-1349.9,1292.1-1349.2L1292.1-1349.2z M1262.2-1399.9c0.7,5.4,0.8,10.8,0.4,16.2
			c-0.4,4.4-1.7,9.3-5.2,12.2c-4,3.5-9.7,3.1-14.6,2.4h-0.1c0.3-4.9,1.6-9.7,3.7-14.1C1249.9-1390.3,1255.5-1395.8,1262.2-1399.9
			L1262.2-1399.9z M1462.9-1524c-6.7-1.3-13.5-1-20.1,0.8c-16.3,4.5-27.4,17.1-37.2,30.1c-5.5,7.3-10.7,14.8-16.7,21.6
			c-5.8,6.6-12.5,12.5-19.7,17.5c-14.8,10.1-31.7,16.6-49.4,19.1c-8.3,1.2-17.1,2.3-24.1,7.3c-4.8,3.5-8.3,8.4-10.1,14
			c-6.8,1.4-13.5,3.6-19.8,6.6c-0.6-3.9-1.3-7.7-1.9-11.5c-1.9-11.4-3.7-22.9-2.8-34.5c0.7-9.4,4.2-18.3,10.1-25.7
			c5.2-6.5,12.5-12.3,21-13.5c9.2-1.4,16.5,3.7,23.1,9.4c6.6,5.8,13.3,11.8,22.5,12.4c9.4,0.6,18.3-4.6,24.7-11.1
			c14.1-14.1,17-36.4,33.2-48.7c13.4-10.2,31.8-10.8,47.3-5.5C1450.2-1533.1,1457-1529.2,1462.9-1524L1462.9-1524z M1599.4-1223.2
			c0.9-5.1,0.8-10.3-0.1-15.4c-2.1-11.9-8.9-23.4-18.8-30.5c1.5-1.5,3-3,4.5-4.6c6-6.6,11.3-14.1,13.6-22.9
			c1.9-7.7,1.8-15.7-0.5-23.3c-4.5-15.8-16.4-29.3-30.7-37.2c-4.5-2.5-9.3-4.4-14.3-5.7c-2.7-15.2-9.5-29.5-19.8-41.1
			c-11.6-13-26.8-21.4-43.2-26.1c1.1-5.1,1.9-10.3,2.3-15.5c0.7,0.3,1.5,0.3,2.2-0.1l61.4-36.1c9.2-5.4,19.9-13.1,31.1-10.8
			c9,1.8,15.6,9.2,20.5,16.6c5.3,8.1,9.4,17.1,13.1,26c3.8,9.1,7,18.5,9.6,28c10.4,38.3,11.5,78.6,3.2,117.4
			c-4.1,19.4-10.6,38.2-19.3,56.1C1609.8-1239.8,1605.1-1231,1599.4-1223.2L1599.4-1223.2z M1577.2-1265.9
			c16,10.6,23.7,35.1,14.4,51.9c-4.1,4.2-9,7.4-14.5,9.5c-7.9,2.8-17,1.1-21.9-6.1c-4.2-6.2-4.2-14.3-2.6-21.4
			c1.9-8.3,6.2-15.2,11.9-21.4C1568.5-1257.8,1572.9-1261.8,1577.2-1265.9z M1464.5-1230.3c-12.3-3-26.1,0.5-38.9,0.7
			c-11.9,0.1-23.7-2.1-34.8-6.4c2.6-2.5,5.2-5.1,7.7-7.8c4.3-0.6,8.7-0.9,13.1-0.9c15.2,0,30.4,2.2,45.5,0.5
			c13.9-1.6,26.8-7,35.2-18.5c6.4-9,9.6-20,9.1-31.1c16.6-0.7,32.9-8,42.4-21.8c8.7-12.6,11.5-27.5,9.9-42.3
			c6.6,2,12.8,5.1,18.4,9.3c13.2,9.7,23.5,25.4,23.3,42.2c-0.2,14.6-9.1,25.2-18.9,34.9c-13.8-7.4-29.6-3.4-42.9,3.8
			c-9.1,4.9-17.6,10.9-26.5,16.2c-9.2,5.4-18.6,10.4-28.2,14.9C1474.1-1234.4,1469.3-1232.3,1464.5-1230.3z M1358.8-1043
			c4.4,0.8,8.9,1.3,13.3,1.5c39.2,1.5,74.6-20.8,106.3-41.5c0.7,17-6.8,33.1-18.7,45.2c-11.2,11.4-26.4,19.5-42.3,21.2
			c-8,0.9-16.1,0-23.8-2.6c-9.4-3.2-17.8-9-25.4-15.3C1365-1037.3,1361.9-1040.1,1358.8-1043L1358.8-1043z M1311.1-1076.1
			c8.2,4,15.7,9.1,22.5,15.1c3.3,2.9,6.5,6,9.7,9.1c-5.6-2.1-10.9-4.8-15.8-8.1C1321-1064.3,1315.5-1069.7,1311.1-1076.1
			L1311.1-1076.1z M1241.4-1234.8c1.3-0.6,2.5-1.2,3.8-1.7c7.2,6.5,14.8,12.5,22.7,18c17.1,11.6,36.7,18.8,57.6,16.3
			c12.7-1.6,25-5.8,36.2-12.2c-0.5,4.1-0.4,8.2,0.4,12.2c2.4,14.3,13.3,25.7,27.6,28.7c13.8,2.9,29.3-1.5,38.2-12.7
			c1.8-2.2-1.4-5.4-3.2-3.2c-4.3,5.3-10.2,9.2-16.8,11c-13.4,3.7-29-0.4-36.7-12.5c-4.9-7.9-6.5-17.4-4.5-26.4
			c4.6-2.9,9.1-6,13.3-9.4c0.8,3.2,2.1,6.3,3.9,9.1c4.7,7.3,12.4,10.5,20.9,9.7c10.2-0.9,20.4-4.3,30.2-7.2c10-3,19.9-6.6,29.7-10.5
			c0.1,0,0.1,0,0.2-0.1c2.8,0.9,5.5,2.2,7.9,4c12,8.9,14.1,25.9,13.4,39.8c-0.9,16.3-5.5,32.3-13.5,46.6
			c-8.2,14.7-21.5,26.9-39.3,26.1c-20-0.9-36.1-16-48.5-30.3c-12.5-14.3-24.7-31.8-42.6-39.8c-8.4-3.7-17.4-3.3-24.4,3
			c-6.1,5.5-9.6,13.5-12.3,21.1c-7,19.4-12.2,40.9-7.3,61.5c0.8,3.2,1.8,6.3,3,9.3c-9.6-2.6-19.5-3-29,0.4
			c2.9-17.1-10.4-33-23.7-42.4c-15.2-10.8-35.1-18.6-43.3-36.7s-1.6-40,11.3-54.1C1223.7-1224.6,1232.1-1230.5,1241.4-1234.8
			L1241.4-1234.8z M1222.8-1263.3c-13.5-13.7-26.3-30.2-29.5-49.6c-2.5-15.3,3-32.6,14-43.5c5.3-5.2,12.2-9.1,19.7-9.7
			c3.8-0.2,7.5,0.1,11.2,0.9c0.1,2,0.3,3.9,0.7,5.9c2.8,14,15.6,23.7,29.9,22.4c6.5-0.7,12.8-2.4,18.7-5.1c0,1.8,0.1,3.7,0.1,5.5
			c0.5,9.8,1.8,19.5,4,29c2,9,4.3,18,4.6,27.3c0.2,8.9-1.8,18-8.8,24c-7.6,6.5-18.2,7.7-27.5,10.1c-4.7,1.2-9.3,2.7-13.9,4.5
			c-0.5-0.5-1-0.9-1.5-1.4C1237.1-1249.6,1229.8-1256.2,1222.8-1263.3L1222.8-1263.3z"/>
		<path id="Path_265" class="st2" d="M1240-1220.6c2.6,9.5,9.1,17.4,18,21.7c7.9,3.9,17.4,5.6,25.9,2.9c10-3.2,15.7-12.1,16.5-22.4
			c0.9-11.3-3.4-22.2-5.4-33.3c8.3,4.7,17.4,7,27,7.7c11.5,0.8,24.1-0.3,34.8,4.6c10.5,4.8,15.6,15.1,14.3,26.4
			c-1.3,11.5-7.7,22.5-15.4,30.8c-15.9,17.2-39.7,28.2-47.5,51.8c-7.3,22,5.8,44.8,24.3,56.7c9.7,6.3,21,9.5,32.6,9.2
			c12.2-0.5,24.1-4,34.7-10.1c22.2-12.5,39.2-34.1,48-57.9c4.5-12.3,6.9-25.7,5.6-38.8c-0.6-6.5-2.1-12.9-4.5-19
			c-2.5-6.4-6.3-12.8-6.2-19.8c0.2-8.4,6.4-14.6,13.6-18c3.5-0.7,6.9-1.7,10.2-2.9c9.2-1.1,18.1,1.6,26.5,6.2
			c11.7,6.4,21.7,15.6,33.2,22.3c10.4,6,22.9,10.3,35.1,8.6c11.4-1.5,20.9-9.3,24.6-20.1c3.7-10.6,2.1-22.7-3.4-32.3
			c-13.2-22.8-42.9-32.4-67.8-33.1c-2.2-0.1-4.5,0-6.7,0c0.5-2.9,0.9-5.8,1.2-8.8c8-0.8,16-2,23.8-3.8c34.6-7.9,66.2-25.4,91.4-50.4
			c2.1-2-1.1-5.2-3.2-3.2c-6.9,6.9-14.4,13.3-22.4,19c-26.3,18.9-57.1,30.6-89.3,33.9c0.6-13.4-0.8-27.2-1.5-40.1
			c-0.7-14.1-0.7-28.6,4-42.2c4-11.7,12-21.7,23.2-27.3c5-2.6,10.6-3.9,16.3-3.7c6,0.3,11.3,2.8,16.5,5.7
			c9.2,5.2,20.9,13.5,31.4,6.8c2.4-1.6,0.2-5.5-2.3-3.9c-4.8,3.1-10.2,2-15.1-0.3c-5.4-2.5-10.4-5.9-15.7-8.6
			c-9.8-5.1-21.3-5.4-31.4-0.8c-10.8,4.9-19.6,13.5-24.6,24.3c-3.3,7.4-5.5,15.3-6.3,23.5c0.3-5.2,0.3-10.4,0-15.6
			c-1.2-20-9.7-43.4-28-53.8c-3.3-1.9-6.8-3.2-10.5-4c-3-7.5-6.2-14.8-9.6-22.1c-4.9-10.4-10.8-20.9-19.7-28.4
			c-9.1-7.8-21.4-10.9-33.1-8.3c-13.1,2.8-24.5,11.3-33.9,20.6c-8.4,8.4-18.7,20.2-14.4,33.1c3.5,10.5,14.7,16.7,25.1,18.3
			c14.7,2.3,29.4-3,44.1-0.9c1.1,0.2,2.3,0.4,3.4,0.6c-3.1,2.9-6.1,5.9-8.9,9.2c-8.2,9.3-15.1,19.7-24.4,28
			c-8.8,7.8-20.5,15-32.7,14.1c-6.2-0.5-11.5-3.5-16-7.6c-4.6-4.3-8.7-9.3-14.4-12.3c-10.2-5.4-22-3.3-31.7,2.3
			c-10.6,6.1-19,15.6-24.8,26.3c-6.7,12.1-11,25.5-12.5,39.3c-1.1,10.4,0,20.9,3.1,30.9c-8.9,9.2-16,20-21.1,31.7
			C1239.1-1246.5,1236.5-1233.2,1240-1220.6z M1433-1418.6c19.4,6.5,34.7,24.5,36.1,45.3c0.7,11.8-2.4,23.6-9,33.5
			c-3.3,5-7.4,9.4-12.3,12.9c-5.7,4.1-12,7.1-18.4,10c-9.2,4.3-18.4,8.7-25.6,15.8c-19.9-7-36.7-21.7-57.6-26.2
			c-10-2.2-20.5-1.3-29.7,3.4c-3.8,2-7.3,4.6-10.3,7.7c-3.7,1.2-7.4,2.6-10.9,4.3c-9.8,4.7-18.7,10.9-26.5,18.4
			c-0.6-2-1-4.1-1.4-6.2c-2.4-13.8-0.6-28.1,3.8-41.3c4.2-12.5,10.7-24.7,20.3-33.8c8-7.6,19.5-14.5,31-12.3
			c12.8,2.5,18.6,16,30.3,20.8c11.1,4.5,23.3,1,33.1-4.9c11-6.6,19.2-16,27.2-25.9C1418.7-1404.1,1425.4-1412.2,1433-1418.6
			L1433-1418.6z M1296.4-1307.5c1.4-0.7,2.9-1.4,4.4-2c-1.2,1.7-2.2,3.5-3.2,5.4c-6.7,13-9,28.2-8.1,43
			c-8.7-7.4-15.3-16.9-19.1-27.6C1278-1296.3,1286.8-1302.7,1296.4-1307.5L1296.4-1307.5z M1449.1-1231.4c-9.5,1.2-19,0.2-28.1-2.7
			c-9.3-3.2-17.6-8.8-23.9-16.3c-14.7-16.8-21.7-39.4-38.3-54.8c-8.2-7.8-18.8-12.6-30.1-13.7c-4.2-0.4-8.4-0.2-12.5,0.4
			c5.4-3.4,11.7-5.3,18.1-5.5c10.8-0.4,21.1,3.7,30.6,8.5c10.1,5,19.7,11,30,15.6c1.9,0.8,3.8,1.6,5.8,2.4c-0.8,1-1.6,2.1-2.4,3.2
			c-6.4,9.6-7.4,22.1,0.2,31.3c6.7,8.2,17.9,11.8,28.2,11.9c13.3,0.1,25.7-6.2,37.3-11.7c12.4-5.9,25-10.4,38.6-11.7
			c-1.4,5.1-3.5,10-6.2,14.5c-6.9,11.5-18,19.9-30.5,24.6c-3.8,0.5-7.5,1.6-11,3.2C1452.9-1231.9,1451-1231.6,1449.1-1231.4
			L1449.1-1231.4z M1473.6-1372.9c-0.7-11.6-5.2-22.8-12.7-31.7c-6.3-7.6-14.5-13.5-23.7-17.2c7.5-5.2,15.8-8.4,25-7.2
			c4.1,9.9,7.6,20,10.5,30.3c3.8,14.2,5.9,29.2,4.1,44c-1.5,11.6-5.7,22.7-12.4,32.3c-6.3,9.2-15,17.3-25.4,21.5
			c-9.8,4-20.3,4.1-30.4,1.3c8.1-7.2,18.5-11.2,28.2-15.9c11.4-5.5,21.4-12.7,28.1-23.7C1471.2-1349.3,1474.2-1361.1,1473.6-1372.9
			L1473.6-1372.9z M1460.4-1433.6c-4.9-0.3-9.7,0.4-14.3,2c-5.1,1.9-9.9,4.6-14.1,8c-13.9-3.9-27.8-0.5-41.9-0.1
			c-11,0.3-24.6-2.9-29.9-13.8c-6.2-12.5,6.6-25.1,14.9-32.9c9.5-8.9,21.7-17.2,35.1-17.8c12.3-0.6,22.6,5.9,30.1,15.3
			c7.4,9.3,12.2,20.5,16.8,31.4C1458.2-1438.9,1459.3-1436.2,1460.4-1433.6L1460.4-1433.6z M1505.2-1292.4L1505.2-1292.4
			c-5.9-18.4-3.5-37.2-1.9-56.1c-0.1,2.2-0.1,4.4,0,6.5C1503.5-1326.1,1506.1-1308.9,1505.2-1292.4L1505.2-1292.4z M1503.6-1279.2
			c-10.4,0.9-20.7,3.3-30.4,7.2c-13.1,5.3-25.4,13.1-39.4,15.7c-10.1,1.9-22.1-0.2-29.8-7.3c-3.9-3.5-6.3-8.4-6.6-13.6
			c-0.3-6.2,2.4-12.1,6.1-16.9c0.5-0.7,1-1.3,1.6-1.9c6.9,2.3,14.3,3.2,21.5,2.7c11.2-1.1,21.5-6.1,29.9-13.4
			c8.6-7.7,15.3-17.2,19.6-27.9c5-12,6.5-24.9,5.7-37.8c-0.9-14.9-4.8-29.4-9.7-43.4c-1.4-4-2.9-8-4.4-12c0.4,0.1,0.8,0.3,1.2,0.4
			c9.6,3.4,16.8,11.5,21.6,20.2c5.2,9.5,8.3,20.1,9.1,30.9c1.1,14.4-1.1,29-2.1,43.4c-1,14.6-0.8,29.5,4,43.4c0.3,1,1.2,1.6,2.2,1.7
			c0.4,0,0.9-0.1,1.3-0.1C1504.6-1285,1504.2-1282.1,1503.6-1279.2L1503.6-1279.2z M1476.5-1235.5c8.6-4.6,16.1-11.2,21.7-19.2
			c4.2-6.1,7.2-13,8.9-20.2c13.8-0.7,27.5,1.5,40.4,6.4c11.5,4.4,22.8,11.6,29.8,22c6.3,9.5,8.3,21.9,3.9,32.6
			c-4.7,11.4-16.1,16.5-27.9,15.7c-13-0.9-24.5-7.7-34.9-15.1c-10.7-7.6-21.1-16-33.7-20.3C1482-1234.5,1479.3-1235.2,1476.5-1235.5
			L1476.5-1235.5z M1312.5-1249.8c-6.5-1.4-12.7-4-18.2-7.7c-1-9.8-0.4-19.6,1.8-29.2c2.2-9.3,6-18.5,12.6-25.6
			c6.9-2.1,14.1-2.7,21.2-1.9c11.3,1.3,21.2,7.2,28.9,15.4c15.3,16.4,22.3,38.7,38.1,54.8c12.9,13.1,31.3,18.7,49.3,17.4
			c-4.7,4.4-7.9,10.3-7.9,17c0,7.1,3.4,13.4,6.1,19.7c2.5,6.1,4.1,12.6,4.7,19.2c2.3,26.4-9.6,53.1-27.1,72.4
			c-16.3,17.9-40.6,32.2-65.6,28.7c-21.7-3-43-21.6-45.3-44c-2.6-25.3,20.3-41.4,37.4-55.8c9.1-7.7,17.2-16.1,22.4-27
			c4.6-9.7,7.3-21.4,3.1-31.7C1364-1252.9,1333.2-1245.6,1312.5-1249.8z M1246.4-1251.7c4.5-12.5,11.5-23.9,20.6-33.6
			c4.5,11.9,12.4,22.3,22.6,29.9c0.1,0.1,0.3,0.2,0.4,0.3c0.4,3.6,1.1,7.3,1.9,10.8c2.7,11.8,8.2,27.4-0.6,38
			c-5.5,6.6-14.8,7.9-22.8,6.2c-8.7-1.9-17.1-7.1-21.5-15C1240.8-1226.1,1242.3-1240.1,1246.4-1251.7z"/>
	</g>
</g>
</svg>
