<svg id="Livello_1" data-name="Livello 1" xmlns="http://www.w3.org/2000/svg" viewBox="0 0 230 50"><defs><style>.cls-1{fill:#27234d;}.cls-2{fill:none;stroke:#ff6725;stroke-linecap:round;stroke-linejoin:round;stroke-width:3px;}</style></defs><title>tavole</title><path class="cls-1" d="M32.53,28.37H29.17V15.94h3.36Z"/><path class="cls-1" d="M35,28.37V15.94H38l5.25,7v-7h3.06V28.37H43.34l-5.25-6.86v6.86Z"/><path class="cls-1" d="M54.82,18.76v9.61H51.45V18.76H47.78V15.94H58.49v2.82Z"/><path class="cls-1" d="M60,28.37V15.94h4.89c3,0,5.21,1.75,5.21,4.23a4,4,0,0,1-1.91,3.38l2.58,4.82H67l-1.83-3.9a5.43,5.43,0,0,1-.57,0H63.34v3.88Zm3.37-6.53h1.42a1.64,1.64,0,0,0,1.81-1.64,1.62,1.62,0,0,0-1.83-1.55h-1.4Z"/><path class="cls-1" d="M71,28.37l4.76-12.43h3.44L84,28.37h-3.5L79.62,26H75.09l-.83,2.36Zm5-4.88h2.77l-1.35-3.84h-.07Z"/><path class="cls-1" d="M89.76,18.76v9.61H86.4V18.76H82.73V15.94h10.7v2.82Z"/><path class="cls-1" d="M101,18.76v9.61H97.63V18.76H94V15.94h10.7v2.82Z"/><path class="cls-1" d="M106.15,28.37V15.94h9.4v2.77h-6V20.9h4.75v2.53h-4.75v2.18h6.15v2.76Z"/><path class="cls-1" d="M117.57,28.37V15.94h2.94l5.25,7v-7h3V28.37h-2.92l-5.24-6.86v6.86Z"/><path class="cls-1" d="M134.66,28.37H131.3V15.94h3.36Z"/><path class="cls-1" d="M137.15,28.37V15.94H140l3.6,4.73L147,15.94h3.13V28.37h-3.27V21.09l-2.69,3.59h-1.09l-2.75-3.55v7.24Z"/><path class="cls-1" d="M152.59,28.37V15.94H162v2.77h-6V20.9h4.75v2.53H156v2.18h6.15v2.76Z"/><path class="cls-1" d="M164,28.37V15.94H167l5.25,7v-7h3.06V28.37h-2.92l-5.25-6.86v6.86Z"/><path class="cls-1" d="M183.82,18.76v9.61h-3.37V18.76h-3.67V15.94h10.71v2.82Z"/><path class="cls-1" d="M194.39,28.64a6.26,6.26,0,0,1-6.46-6.48,6.45,6.45,0,1,1,12.9,0A6.23,6.23,0,0,1,194.39,28.64Zm0-2.92c1.66,0,2.87-1.5,2.87-3.56s-1.21-3.53-2.87-3.53-2.88,1.5-2.88,3.53S192.7,25.72,194.39,25.72Z"/><line class="cls-2" x1="30.64" y1="32.79" x2="199.36" y2="32.79"/></svg>