<?xml version="1.0" encoding="utf-8"?>
<!-- Generator: Adobe Illustrator 22.1.0, SVG Export Plug-In . SVG Version: 6.00 Build 0)  -->
<svg version="1.1" id="Livello_1" xmlns="http://www.w3.org/2000/svg" xmlns:xlink="http://www.w3.org/1999/xlink" x="0px" y="0px"
	 viewBox="0 0 182.6 111.2" style="enable-background:new 0 0 182.6 111.2;" xml:space="preserve">
<style type="text/css">
	.st0{fill:#E74F20;}
	.st1{fill:#C5003B;}
	.st2{fill:#FFB40A;stroke:#FFB40A;stroke-width:3;stroke-linecap:round;stroke-linejoin:round;}
	.st3{fill:#111F3C;stroke:#111F3C;stroke-width:3;stroke-linecap:round;stroke-linejoin:round;}
	.st4{fill:#22FED0;}
	.st5{fill:#FFB40A;}
	.st6{fill:#F1F0F1;}
</style>
<g id="Group_66" transform="translate(-1604.264 6.011)">
	<path id="Path_266" class="st0" d="M1763.8,81.5h-105.1c-12.7,0-23-10.3-23-23l0,0l0,0c0-12.7,10.3-23,23-23l0,0h105.1
		c12.7,0,23,10.3,23,23l0,0l0,0c0,11.9-9.1,21.9-21,22.9C1765.2,81.5,1764.5,81.5,1763.8,81.5z"/>
	<path id="Path_267" class="st1" d="M1763.8,81.5c4,0,7.8-1,11.3-3l4.5-3.3c9.2-8.7,9.7-23.3,0.9-32.5c-3.7-3.9-8.6-6.4-14-7
		l-25.3,18.5c-2.4,12.5,5.8,24.5,18.3,26.9C1761,81.3,1762.4,81.5,1763.8,81.5L1763.8,81.5z"/>
	<circle id="Ellipse_32" class="st1" cx="1732.4" cy="81.5" r="23"/>
	<path id="Path_268" class="st1" d="M1735.1,58.7l31.8-23l10.9,41.1l-32,23.4L1735.1,58.7z"/>
	<path id="Path_269" class="st0" d="M1612.7,63.4l30.4-22l10.9,41.1l-30,17.3L1612.7,63.4z"/>
	<path id="Rectangle_195" class="st2" d="M1647-4.1L1647-4.1c1.4-0.1,2.7,0.9,2.8,2.4l4.2,47.2c0.1,1.4-0.9,2.7-2.4,2.8l0,0
		c-1.4,0.1-2.7-0.9-2.8-2.4l-4.2-47.2C1644.5-2.7,1645.5-4,1647-4.1z"/>
	<path id="Rectangle_196" class="st2" d="M1740.6-4.1L1740.6-4.1c1.4,0.1,2.5,1.4,2.4,2.8l-4.4,47.2c-0.1,1.4-1.4,2.5-2.8,2.4l0,0
		c-1.4-0.1-2.5-1.4-2.4-2.8l4.4-47.2C1737.9-3.2,1739.2-4.3,1740.6-4.1z"/>
	<path id="Rectangle_197" class="st3" d="M1628.4,58.5h101.4c12.5,0,22.6,10.1,22.6,22.6l0,0c0,12.5-10.1,22.6-22.6,22.6h-101.4
		c-12.5,0-22.6-10.1-22.6-22.6l0,0C1605.8,68.6,1615.9,58.5,1628.4,58.5z"/>
	<circle id="Ellipse_33" class="st4" cx="1626" cy="79" r="3.5"/>
	<circle id="Ellipse_71" class="st1" cx="1638" cy="79" r="3.5"/>
	<circle id="Ellipse_72" class="st5" cx="1650" cy="79" r="3.5"/>
	<circle id="Ellipse_36" class="st4" cx="1721.3" cy="79" r="2.7"/>
	<circle id="Ellipse_73" class="st4" cx="1732.3" cy="79" r="2.7"/>
	<path id="Rectangle_198" class="st6" d="M1681.3,85.7h50.5c1.9,0,3.5,1.6,3.5,3.5v0c0,1.9-1.6,3.5-3.5,3.5h-50.5
		c-1.9,0-3.5-1.6-3.5-3.5v0C1677.8,87.3,1679.3,85.7,1681.3,85.7z"/>
	<path id="Path_270" class="st1" d="M1779.6,75.2l-4.5,3.3C1776.7,77.6,1778.3,76.5,1779.6,75.2z"/>
</g>
</svg>
