<?xml version="1.0" encoding="utf-8"?>
<!-- Generator: Adobe Illustrator 22.1.0, SVG Export Plug-In . SVG Version: 6.00 Build 0)  -->
<svg version="1.1" id="Livello_1" xmlns="http://www.w3.org/2000/svg" xmlns:xlink="http://www.w3.org/1999/xlink" x="0px" y="0px"
	 viewBox="0 0 398.8 444.2" style="enable-background:new 0 0 398.8 444.2;" xml:space="preserve">
<style type="text/css">
	.st0{fill:#22FED0;}
	.st1{fill:#EB672F;stroke:#EB672F;stroke-linecap:round;stroke-linejoin:round;}
	.st2{fill:#D20C4C;stroke:#D20C4C;stroke-linecap:round;stroke-linejoin:round;}
	.st3{fill:#1E284C;stroke:#1E284C;stroke-linecap:round;stroke-linejoin:round;}
	.st4{fill:#F9C121;stroke:#F9C121;stroke-linecap:round;stroke-linejoin:round;}
	.st5{fill:#EB672F;}
	.st6{fill:#F3F2F3;}
	.st7{fill:#D20C4C;}
	.st8{fill:#00FFCA;stroke:#00FFCA;stroke-linecap:round;stroke-linejoin:round;}
	.st9{fill:#F9C121;}
	.st10{fill:#F3F2F3;stroke:#F3F2F3;stroke-linecap:round;stroke-linejoin:round;}
	.st11{fill:#6BC1BA;}
	.st12{fill:#00FFCA;}
</style>
<path id="Path_301" class="st0" d="M67.6,269.7c-12.6-0.3-22.6,0.4-33.2-0.3C17.4,268.2,15,253.8,9,244.4
	c-8.9-13.9-26.5-27.2-49-22.8c-5.4,1-3.3,7.3,2.1,6.3c31.9-6.1,38.3,23.8,50.1,37.8c11.5,13.7,36.2,11.1,53.6,11.3
	C71.7,277.3,73.2,269.9,67.6,269.7z"/>
<g id="Group_175" transform="translate(17.699 5109.327)">
	<path id="Path_607" class="st1" d="M65.1-4983.2l11.5-7.4v7.5L65.1-4983.2z"/>
	<path id="Path_608" class="st1" d="M65.1-4922l11.5-7.4v7.5L65.1-4922z"/>
	<path id="Path_609" class="st1" d="M65.1-4860.3l11.5-7.4v7.5L65.1-4860.3z"/>
	<path id="Path_610" class="st1" d="M65.1-4799.3l11.5-7.4v7.5L65.1-4799.3z"/>
	<path id="Path_611" class="st2" d="M321.4-4960.3l-14.3,9.8l1.7-15.8l8.2-4.1L321.4-4960.3z"/>
	<path id="Path_612" class="st2" d="M321.4-4776.2l-14.3,10.1l0.4-16.7l10-2.2l3.7,7.1L321.4-4776.2z"/>
	<path id="Path_613" class="st2" d="M321.4-4899l-14.5,9.7v-11.6h14.3L321.4-4899z"/>
	<path id="Path_614" class="st2" d="M295.1-4885.6l-14.5,9.7v-11.6h14.3L295.1-4885.6z"/>
	<path id="Path_615" class="st2" d="M321.4-4837.5l-14.5,9.6l1.3-18.1c0,0,4.5-1.1,4.5-0.7s8.6,7.4,8.6,7.4L321.4-4837.5z"/>
	<path id="Path_616" class="st2" d="M321.4-4960.4l-242,22.3v-54.7l242-22.3L321.4-4960.4z"/>
	<path id="Path_617" class="st2" d="M321.4-4899l-242,22.3v-54.7l242-22.3L321.4-4899z"/>
	<path id="Path_618" class="st2" d="M321.4-4776.2l-242,22.3v-54.7l242-22.3L321.4-4776.2z"/>
	<path id="Path_619" class="st2" d="M312.3-4743.1l-221.7,22.3v-283.8l220.9-22.3L312.3-4743.1z"/>
	<path id="Path_620" class="st2" d="M321.4-4837.6l-242,22.3v-54.7l242-22.1V-4837.6z"/>
	<path id="Path_621" class="st1" d="M76.2-4994.8l44.2-32h191.1l-44.2,32H76.2z"/>
	<path id="Path_622" class="st1" d="M267.9-4983.1l9.2-0.1l44.2-32h-9.7L267.9-4983.1z"/>
	<path id="Path_623" class="st1" d="M267.4-4922l44.9-31.7l9.1,0l-43.9,31.8H267.4z"/>
	<path id="Path_624" class="st1" d="M267.7-4860.7l44.9-31.4l8.6,0h0.2l-44,31.5L267.7-4860.7z"/>
	<path id="Path_625" class="st1" d="M267.5-4798.9l44.2-32.1l9.7,0.1l-44.2,32H267.5z"/>
	<path id="Path_626" class="st2" d="M312.3-4743.1l-45,32l0.4-29.7l36.4-8.6L312.3-4743.1z"/>
	<path id="Path_627" class="st2" d="M321.4-4899l-44.2,32v-12.2h14.3L321.4-4899z"/>
	<path id="Path_628" class="st2" d="M321.4-4837.6l-44.2,32v-12.2h14.3L321.4-4837.6z"/>
	<path id="Path_629" class="st2" d="M321.4-4960.4l-44.2,32v-12.2h14.3L321.4-4960.4z"/>
	<rect id="Rectangle_902" x="76.2" y="-4994.9" class="st3" width="191.2" height="283.8"/>
	<rect id="Rectangle_903" x="65" y="-4798.9" class="st3" width="212.2" height="54.7"/>
	<rect id="Rectangle_904" x="81.9" y="-4785" class="st4" width="99.4" height="26.9"/>
	<circle id="Ellipse_80" class="st5" cx="202.7" cy="-4783.5" r="3.2"/>
	<circle id="Ellipse_81" class="st6" cx="202.7" cy="-4771.6" r="3.2"/>
	<circle id="Ellipse_82" class="st7" cx="202.7" cy="-4759.6" r="3.2"/>
	<rect id="Rectangle_905" x="218.5" y="-4785" class="st8" width="2.7" height="26.9"/>
	<rect id="Rectangle_906" x="226.5" y="-4785" class="st8" width="2.7" height="26.9"/>
	<rect id="Rectangle_907" x="234.5" y="-4785" class="st8" width="2.7" height="26.9"/>
	<rect id="Rectangle_908" x="242.5" y="-4785" class="st8" width="2.7" height="26.9"/>
	<rect id="Rectangle_909" x="250.5" y="-4785" class="st8" width="2.7" height="26.9"/>
	<rect id="Rectangle_910" x="258.5" y="-4785" class="st8" width="2.7" height="26.9"/>
	<rect id="Rectangle_911" x="266.5" y="-4785" class="st8" width="2.7" height="26.9"/>
	<g id="Group_170" transform="translate(20.489 353.666)">
		<rect id="Rectangle_912" x="44.5" y="-5275.4" class="st3" width="212.2" height="54.7"/>
		<rect id="Rectangle_913" x="61.4" y="-5261.5" class="st4" width="99.4" height="26.9"/>
		<circle id="Ellipse_83" class="st5" cx="182.3" cy="-5260" r="3.2"/>
		<circle id="Ellipse_84" class="st9" cx="182.3" cy="-5248" r="3.2"/>
		<circle id="Ellipse_85" class="st6" cx="182.3" cy="-5236.1" r="3.2"/>
		<rect id="Rectangle_914" x="198" y="-5261.5" class="st10" width="2.7" height="26.9"/>
		<rect id="Rectangle_915" x="206" y="-5261.5" class="st8" width="2.7" height="26.9"/>
		<rect id="Rectangle_916" x="214" y="-5261.5" class="st10" width="2.7" height="26.9"/>
		<rect id="Rectangle_917" x="222" y="-5261.5" class="st8" width="2.7" height="26.9"/>
		<rect id="Rectangle_918" x="230" y="-5261.5" class="st10" width="2.7" height="26.9"/>
		<rect id="Rectangle_919" x="238" y="-5261.5" class="st8" width="2.7" height="26.9"/>
		<rect id="Rectangle_920" x="246" y="-5261.5" class="st8" width="2.7" height="26.9"/>
		<g id="Group_169" transform="translate(0 10.216)">
			<path id="Path_635" class="st7" d="M48.8-5275.6H28.2c-1.6,0.1-2.9,1.7-2.9,3.6c0.1,1.8,1.3,3.3,2.9,3.4h20.6
				c1.6-0.1,2.9-1.7,2.9-3.6C51.7-5274.1,50.4-5275.6,48.8-5275.6z"/>
			<path id="Path_638" class="st7" d="M48.8-5261.7H28.2c-1.6,0.1-2.9,1.7-2.9,3.6c0.1,1.8,1.3,3.3,2.9,3.4h20.6
				c1.6-0.1,2.9-1.7,2.9-3.6C51.7-5260.2,50.4-5261.7,48.8-5261.7z"/>
			<path id="Path_639" class="st7" d="M48.8-5247.8H28.2c-1.6,0.1-2.9,1.7-2.9,3.6c0.1,1.8,1.3,3.3,2.9,3.4h20.6
				c1.6-0.1,2.9-1.7,2.9-3.6C51.7-5246.3,50.4-5247.8,48.8-5247.8z"/>
		</g>
	</g>
	<g id="Group_172" transform="translate(20.489 294.676)">
		<rect id="Rectangle_921" x="44.5" y="-5277.8" class="st3" width="212.2" height="54.7"/>
		<rect id="Rectangle_922" x="61.4" y="-5263.9" class="st4" width="99.4" height="26.9"/>
		<circle id="Ellipse_86" class="st11" cx="182.3" cy="-5262.4" r="3.2"/>
		<circle id="Ellipse_87" class="st9" cx="182.3" cy="-5250.4" r="3.2"/>
		<circle id="Ellipse_88" class="st7" cx="182.3" cy="-5238.5" r="3.2"/>
		<rect id="Rectangle_923" x="198" y="-5263.9" class="st10" width="2.7" height="26.9"/>
		<rect id="Rectangle_924" x="206" y="-5263.9" class="st10" width="2.7" height="26.9"/>
		<rect id="Rectangle_925" x="214" y="-5263.9" class="st10" width="2.7" height="26.9"/>
		<rect id="Rectangle_926" x="222" y="-5263.9" class="st10" width="2.7" height="26.9"/>
		<rect id="Rectangle_927" x="230" y="-5263.9" class="st10" width="2.7" height="26.9"/>
		<rect id="Rectangle_928" x="238" y="-5263.9" class="st10" width="2.7" height="26.9"/>
		<rect id="Rectangle_929" x="246" y="-5263.9" class="st10" width="2.7" height="26.9"/>
	</g>
	<g id="Group_174" transform="translate(20.489 412.656)">
		<rect id="Rectangle_930" x="44.5" y="-5273" class="st3" width="212.2" height="54.7"/>
		<rect id="Rectangle_931" x="61.4" y="-5259.1" class="st4" width="99.4" height="26.9"/>
		<circle id="Ellipse_89" class="st12" cx="182.3" cy="-5257.6" r="3.2"/>
		<circle id="Ellipse_90" class="st5" cx="182.3" cy="-5245.6" r="3.2"/>
		<circle id="Ellipse_91" class="st7" cx="182.3" cy="-5233.7" r="3.2"/>
		<rect id="Rectangle_932" x="198" y="-5259.1" class="st8" width="2.7" height="26.9"/>
		<rect id="Rectangle_933" x="206" y="-5259.1" class="st8" width="2.7" height="26.9"/>
		<rect id="Rectangle_934" x="214" y="-5259.1" class="st8" width="2.7" height="26.9"/>
		<rect id="Rectangle_935" x="222" y="-5259.1" class="st8" width="2.7" height="26.9"/>
		<rect id="Rectangle_936" x="230" y="-5259.1" class="st8" width="2.7" height="26.9"/>
		<rect id="Rectangle_937" x="238" y="-5259.1" class="st8" width="2.7" height="26.9"/>
		<rect id="Rectangle_938" x="246" y="-5259.1" class="st8" width="2.7" height="26.9"/>
	</g>
</g>
<g id="Group_169_1_" transform="translate(0 10.216)">
	<path id="Path_635_1_" class="st5" d="M87.3,124.1H68.9c-1.5,0.1-2.6,1.7-2.6,3.6c0,1.8,1.2,3.3,2.6,3.4h18.4
		c1.5-0.1,2.6-1.7,2.6-3.6C89.9,125.7,88.7,124.2,87.3,124.1z"/>
	<path id="Path_638_1_" class="st5" d="M87.3,138H68.9c-1.5,0.1-2.6,1.7-2.6,3.6c0,1.8,1.2,3.3,2.6,3.4h18.4
		c1.5-0.1,2.6-1.7,2.6-3.6C89.9,139.5,88.7,138.1,87.3,138z"/>
	<path id="Path_639_1_" class="st5" d="M87.3,151.9H68.9c-1.5,0.1-2.6,1.7-2.6,3.6c0,1.8,1.2,3.3,2.6,3.4h18.4
		c1.5-0.1,2.6-1.7,2.6-3.6C89.9,153.4,88.7,152,87.3,151.9z"/>
</g>
<g id="Group_169_2_" transform="translate(0 10.216)">
	<path id="Path_635_2_" class="st0" d="M88,245.6H66.5c-1.7,0.1-3,1.7-3,3.6c0.1,1.8,1.4,3.3,3,3.4H88c1.7-0.1,3-1.7,3-3.6
		C90.9,247.1,89.6,245.7,88,245.6z"/>
	<path id="Path_638_2_" class="st0" d="M88,259.5H66.5c-1.7,0.1-3,1.7-3,3.6c0.1,1.8,1.4,3.3,3,3.4H88c1.7-0.1,3-1.7,3-3.6
		C90.9,261,89.6,259.6,88,259.5z"/>
	<path id="Path_639_2_" class="st0" d="M88,273.4H66.5c-1.7,0.1-3,1.7-3,3.6c0.1,1.8,1.4,3.3,3,3.4H88c1.7-0.1,3-1.7,3-3.6
		C90.9,274.9,89.6,273.5,88,273.4z"/>
</g>
<g id="Group_169_3_" transform="translate(0 10.216)">
	<path class="st9" d="M455,336.4c-35.5,4.3-65.7,21.1-90.6,46.3c-13.2,13.4-26.7,26-46.9,25c-10.4-0.5-20.4-3.8-30.3-6.7
		c-8.7-2.5-15.8-2.8-23.4,2.6c-7.6,5.3-14.6,10.6-23.5,13.6c-8.8,3-18.1,4.2-27.3,3.4c-10.5-0.9-20.5-4.2-30.7-6.6
		c-9.3-2.2-18.7-3.4-28.2-3.2c-20,0.4-39.8,4.4-59.8,0.8c-17.6-3.2-34.5-10.6-48.7-21.5c-15.4-11.9-29.9-29.3-31.2-49.5
		c-0.7-10.1,2.5-24.9,14.9-25.1c11.9-0.2,23.9,0.7,35.7,1.2c0.4,0.3,0.9,0.5,1.5,0.5h21.1c1.7-0.1,3-1.7,2.9-3.6
		c-0.1-1.8-1.3-3.3-2.9-3.4H66.4c-0.8,0-1.5,0.4-2.1,1c-11.1-0.4-22.3-0.9-33.5-1.1c-8.9-0.2-14.7,3.2-18.5,11.4
		c-7.1,15.3-2.5,32.9,5.8,46.7c18.4,30.6,55.6,49.1,90.6,50.4c22.5,0.8,44.9-5.1,67.3-0.5c19.6,4.1,37.7,10.8,57.9,6.4
		c9.2-2,18-5.8,25.7-11.2c3.6-2.6,7-5.8,11.1-7.7c6.2-2.9,12.8-0.1,18.9,1.7c18.6,5.4,38,9.6,55.6-1c17.9-10.8,30-29,47.2-40.8
		c18.6-12.8,40.1-20.9,62.5-23.7C458.4,341.4,458.4,336,455,336.4z"/>
	<path id="Path_638_3_" class="st9" d="M87.5,324.1H66.4c-1.7,0.1-3,1.7-2.9,3.6c0.1,1.8,1.3,3.3,2.9,3.4h21.1
		c1.7-0.1,3-1.7,2.9-3.6C90.3,325.6,89.1,324.1,87.5,324.1z"/>
	<path id="Path_639_3_" class="st9" d="M87.5,338H66.4c-1.7,0.1-3,1.7-2.9,3.6c0.1,1.8,1.3,3.3,2.9,3.4h21.1c1.7-0.1,3-1.7,2.9-3.6
		C90.3,339.5,89.1,338,87.5,338z"/>
</g>
<path class="st7" d="M68.5,197.6c-14.3,4-30.7-2.5-38-15.7c-8.7-15.9-2-35.2,7-49.3c15.7-24.6,48-50.1,40.1-83.1
	c-3.2-13.6-17.5-22-30.1-25.6c-6.5-1.9-12.7-1.3-18.9,1.4c-1.6,0.7-3.5,1.7-5.5,2.8c-1.5-5.6-4.2-10.8-8-15.2
	c-4-4.7-9.9-10.2-16.4-6.9C-14.2,12.7-6.7,36,5.8,38.4c4.5,0.9,8.7-0.1,12.8-1.7c0,1,0,2.1,0,3.1c-0.7,10.9-14,10-22.2,10
	c-10.2-0.1-19.9-2.1-29.7-4.5c-8.5-2.1-17.9-4.7-26.6-3.3c-8.6,1.3-14,7.8-19.2,14.2c-11.5,14.2-20.4,30.1-26.7,47.2
	c-1.3,3.6,4.4,5.1,5.7,1.6c6.9-18.6,17.3-38,31.7-52c8.7-8.4,20.9-5,31.4-2.5c10,2.4,19.9,4.7,30.2,5.2c7.6,0.3,17.3,0.7,24.2-3
	c6.8-3.7,7.7-11.2,7-18.3c0-0.1,0-0.1,0-0.2c1.1-0.5,2.1-1.1,3.2-1.6c4.9-2.5,9.5-4.4,15.1-3.6c5.3,0.8,10.3,3.2,15,5.8
	c9.7,5.3,15.3,12.6,15.2,23.9c-0.1,10.2-3.9,19.9-9,28.6c-10.1,17.3-25.5,30.9-35,48.6c-8.5,15.8-12.4,36.9-1.2,52.4
	c9.5,13.2,26.8,19.3,42.5,15C73.7,202.3,72.2,196.6,68.5,197.6z M2,29.9c-2.8-3.1-4-8.2-3.7-12.3c0.2-4,2.4-8.1,7.3-5.7
	c1.7,0.8,3.6,3.1,4.8,4.5c3.5,4.1,6.1,9.1,7.4,14.5C12.1,33.4,6.3,34.6,2,29.9z"/>
<path class="st5" d="M483.2,141.8c-41.3-15.7-75-42.6-102.2-77C370.2,51.3,352.5,35.1,334,45c-3.7,2-6.8,4.8-10.2,7.3
	c-4.5,3.2-9.4,5.9-14.6,7.9c-10,3.9-21,5.4-31.7,4.4c-22.9-2.1-39.4-18.5-60.3-26c-18.4-6.6-38.9-7.4-57.8-2.4
	c-19.9,5.3-34.7,17.3-50.6,29.8c-8.4,6.6-17.2,12.8-27.5,16.2c-10.9,3.6-22.6,4.1-33.6,7.4c-17.5,5.3-34.4,20.8-26.5,40.5
	c9.1,22.7,35.7,25,56.8,24.7c3.8,0,4.2-5.9,0.4-5.9c-19.1,0.2-47.6-1.3-52.8-24.6C20.5,101,50.7,94.3,67,91.4
	c9.4-1.7,18.5-3.8,26.9-8.3c7.8-4.1,14.8-9.6,21.7-15.1c15.8-12.6,31.1-23.7,51.3-27.6c19.4-3.7,39.8-1.2,57.6,7.6
	c17.8,8.8,33,20.8,53.5,22.4c17.2,1.4,34.8-3.3,48.9-13.3c4.1-2.9,7.8-6.6,12.6-8.2c5.4-1.8,11.3-1,16.4,1.3
	C365.5,54.5,372,63,378.3,71c26.9,34.3,62.1,60.9,102.9,76.4C484.8,148.7,486.7,143.2,483.2,141.8z"/>
</svg>
